<?xml version="1.0" standalone="no"?>
<!DOCTYPE svg PUBLIC "-//W3C//DTD SVG 1.1//EN" "http://www.w3.org/Graphics/SVG/1.1/DTD/svg11.dtd" >
<svg xmlns="http://www.w3.org/2000/svg" xmlns:xlink="http://www.w3.org/1999/xlink" version="1.1">
<metadata></metadata>
<defs>
<font id="morionregular" horiz-adv-x="0" >
<font-face units-per-em="2048" ascent="1536" descent="-512" />
<missing-glyph horiz-adv-x="571" />
<glyph unicode="fb" horiz-adv-x="1927" d="M78 877v65h172v139q0 228 108.5 340.5t329.5 112.5q122 0 227.5 -36.5t169.5 -100.5v-531q41 48 123 76.5t164 28.5q206 0 335.5 -136t129.5 -352q0 -222 -130 -367t-351 -145q-170 0 -281 105v-76h-280v20l114 156v977q0 162 -65 247t-187 85q-110 0 -174.5 -71 t-64.5 -193v-279h291v-65h-291v-701l102 -158v-18h-373v18l103 158v701h-172zM1079 166q43 -63 112.5 -91t143.5 -28q158 0 239 101.5t81 297.5q0 190 -93 302t-251 112q-71 0 -134 -30t-98 -82v-582z" />
<glyph unicode="fh" horiz-adv-x="1882" d="M78 877v65h172v139q0 228 108.5 340.5t329.5 112.5q254 0 389 -125v-596q100 158 297 158q38 0 78.5 -9t86.5 -33t81 -61.5t58.5 -101t23.5 -143.5v-447l98 -158v-18h-364v18l98 158v422q0 132 -53 205.5t-162 73.5q-101 0 -171.5 -70.5t-70.5 -165.5v-465l99 -158v-18 h-365v18l98 158v977q0 162 -65 247t-187 85q-110 0 -174.5 -71t-64.5 -193v-279h291v-65h-291v-701l102 -158v-18h-373v18l103 158v701h-172z" />
<glyph unicode="fj" horiz-adv-x="1132" d="M78 877v65h172v139q0 127 29 217t83 140.5t121.5 73t153.5 22.5q160 0 260 -70.5t115 -193.5l-117 -129l-127 127q12 40 12 71q0 76 -47.5 111t-111.5 35q-203 0 -203 -264v-279h588v-932q0 -96 -17 -172.5t-54 -138t-102.5 -95.5t-154.5 -34v29q27 6 49 20t37.5 29.5 t28 43t20 47t13 54t7.5 52.5t3.5 54t1.5 46.5v42.5v622q0 118 -47.5 192.5t-94.5 74.5h-278v-701l102 -158v-18h-373v18l103 158v701h-172z" />
<glyph unicode="fi" horiz-adv-x="1171" d="M78 879v63h172v133q0 128 27 219.5t78 142.5t114 74t145 23q158 0 256.5 -72t110.5 -198l-117 -129l-127 127q13 47 13 75q0 72 -38.5 110t-109.5 38q-90 0 -137 -70t-47 -201v-272h577v-766l105 -156v-20h-381v20l108 156v434q0 119 -38 194t-82 75h-289v-703l102 -158 v-18h-373v18l103 158v703h-172z" />
<glyph unicode="fl" horiz-adv-x="1282" d="M78 879v63h172v133q0 127 36 219.5t99 143t136.5 73.5t160.5 23q84 0 196.5 -14.5t194.5 -40.5v-1303l113 -156v-20h-393v20l112 156v1038q0 131 -61 201t-176 70q-122 0 -186 -72.5t-64 -198.5v-272h291v-63h-291v-703l102 -158v-18h-373v18l103 158v703h-172z" />
<glyph unicode="ff" horiz-adv-x="1409" d="M78 879v63h172v133q0 459 342 459q231 0 323 -143l-167 -136h-46q11 49 11 76q0 72 -35.5 113t-97.5 41q-162 0 -162 -271v-272h502v133q0 128 25.5 219.5t74 142.5t108.5 74t138 23q115 0 192 -34.5t135 -108.5l-168 -136h-45q11 50 11 76q0 154 -138 154 q-166 0 -166 -271v-272h291v-63h-291v-703l111 -156v-20h-387v20l109 156v703h-502v-703l110 -156v-20h-387v20l109 156v703h-172z" />
<glyph unicode="ffi" horiz-adv-x="1875" d="M78 877v65h172v133q0 459 348 459q235 0 326 -143l-168 -136h-45q10 45 10 76q0 71 -37 112.5t-98 41.5q-168 0 -168 -271v-272h502v133q0 102 21.5 182.5t57.5 131.5t86.5 84.5t104.5 47t115 13.5q177 0 276 -69.5t111 -200.5l-117 -129l-127 127q12 44 12 75 q0 69 -45.5 108.5t-124.5 39.5q-203 0 -203 -271v-272h611v-766l106 -156v-20h-358v20l108 156v434q0 120 -38 194.5t-82 74.5h-347v-703l111 -156v-20h-387v20l109 156v701h-502v-701l110 -156v-20h-387v20l109 156v701h-172z" />
<glyph unicode="ffl" horiz-adv-x="1951" d="M78 879v63h172v133q0 459 342 459q231 0 323 -143l-167 -136h-46q11 49 11 76q0 72 -35.5 113t-97.5 41q-162 0 -162 -271v-272h502v133q0 127 36 219.5t99 143t136.5 73.5t160.5 23q103 0 211 -22.5t180 -59.5v-1276l112 -156v-20h-393v20l113 156v1038q0 132 -61 201.5 t-177 69.5q-122 0 -186 -72.5t-64 -198.5v-272h291v-63h-291v-703l103 -158v-18h-373v18l103 158v703h-502v-703l110 -156v-20h-387v20l109 156v703h-172z" />
<glyph unicode=" "  horiz-adv-x="571" />
<glyph unicode="&#x09;" horiz-adv-x="571" />
<glyph unicode="&#xa0;" horiz-adv-x="571" />
<glyph unicode="!" horiz-adv-x="507" d="M121 100l133 138l133 -138l-133 -135zM121 1415l133 117l133 -117q-44 -211 -71 -484t-27 -546h-72q0 616 -96 1030z" />
<glyph unicode="&#x22;" horiz-adv-x="704" d="M70 1397l133 137l133 -137q-5 -9 -13 -24.5t-28.5 -63.5t-36 -95.5t-28.5 -113t-13 -123.5h-27q0 92 -30 197t-60 164zM369 1397l133 137l133 -137q-5 -9 -13 -24.5t-28.5 -63.5t-36 -95.5t-28.5 -113t-13 -123.5h-27q0 92 -30 197t-60 164z" />
<glyph unicode="#" horiz-adv-x="1296" d="M43 467v72h279l81 309h-280v74h305l133 479h17v-479h241l135 479h15v-479h278v-74h-286l-93 -309h299v-72h-311l-143 -502h-15v502h-241l-135 -502h-15v502h-264zM477 539h236l94 309h-246z" />
<glyph unicode="$" horiz-adv-x="1224" d="M123 0v401h59q16 -87 52.5 -153.5t77.5 -103t92 -60.5t87 -31.5t72 -9.5v651q-54 22 -89 38t-83 42t-79 50t-65.5 59t-54 73t-32.5 88t-13 107q0 82 26 147t67 106.5t97.5 70t111.5 41.5t114 16v225h82v-225q155 -7 270 -75.5t166 -182.5l-194 -135h-23q15 58 15 88 q0 108 -60.5 172t-173.5 76v-578q11 -5 33 -14q48 -20 73 -31t70 -32.5t70 -36.5t62 -40t58 -47t46 -53t38 -63t22 -72t9 -84q0 -204 -130.5 -321.5t-350.5 -129.5v-204h-82v202q-179 10 -270 92l-146 -63h-24zM303 1225q0 -101 67 -167.5t193 -125.5v543 q-115 -8 -187.5 -75.5t-72.5 -174.5zM645 43q89 6 159 35.5t115.5 90.5t45.5 146q0 68 -24.5 122.5t-73.5 95t-98.5 67.5t-123.5 59v-616z" />
<glyph unicode="%" horiz-adv-x="1482" d="M152 1210q0 62 16.5 112t41.5 81t58 51.5t63.5 28.5t59.5 8q39 0 78.5 -14t78 -44t63 -88t24.5 -135t-24.5 -134.5t-63 -87.5t-78 -44t-78.5 -14q-37 0 -75.5 14t-77 44t-62.5 87.5t-24 134.5zM172 0l985 1466h129l-985 -1466h-129zM279 1208q-1 -113 29.5 -171t82.5 -58 q56 0 87.5 58t31.5 171q0 114 -31.5 173t-87.5 59q-52 0 -82.5 -59.5t-29.5 -172.5zM848 252q0 77 24 134.5t62.5 87.5t77 44t75.5 14q39 0 78.5 -14t78 -44t63 -87.5t24.5 -134.5t-24.5 -135t-63 -88t-78 -44t-78.5 -14q-29 0 -59.5 8t-63.5 28.5t-58 51.5t-41.5 81 t-16.5 112zM975 250q-1 -113 29.5 -171.5t82.5 -58.5q55 0 87 58.5t32 171.5q0 114 -31.5 172.5t-87.5 58.5q-52 0 -82.5 -59t-29.5 -172z" />
<glyph unicode="&#x26;" horiz-adv-x="1443" d="M78 387q0 66 18.5 122.5t46 97t74 80t86 64.5t98.5 58q-93 119 -141.5 215t-48.5 203q0 52 20.5 103t62.5 98t118.5 76.5t175.5 29.5q162 0 255 -82t93 -211q0 -39 -7 -74.5t-16 -63.5t-29 -56.5t-34 -47t-44.5 -43t-47 -37t-54.5 -34.5t-54 -30.5t-58 -31.5l424 -561 q119 116 174 270l-113 160v25h238q-25 -148 -90.5 -280.5t-163.5 -233.5q79 -101 147 -101q55 0 123 88h41q-61 -219 -219 -219q-110 0 -213 127q-183 -127 -385 -127q-212 0 -344.5 115.5t-132.5 300.5zM258 401q0 -146 93.5 -233.5t242.5 -87.5q156 0 295 84l-436 577 q-93 -62 -144 -141.5t-51 -198.5zM375 1257q0 -130 170 -370q113 68 174 145.5t61 194.5q0 47 -12.5 90t-37.5 80t-68.5 59.5t-98.5 22.5q-19 0 -40.5 -5t-48.5 -20t-48.5 -38t-36 -64.5t-14.5 -94.5z" />
<glyph unicode="'" horiz-adv-x="335" d="M31 1395l133 137l133 -137l-125 -420h-33q2 13 4.5 35t2 83t-8.5 112.5t-35 106.5t-71 83z" />
<glyph unicode="(" horiz-adv-x="694" d="M121 705q0 117 21 225t53.5 190.5t77.5 157t88.5 125.5t90 93.5t78.5 65.5t58 37l12 -20l27 -47q-2 0 -19.5 -13.5t-48 -44.5t-65 -75.5t-70.5 -113.5t-65 -150t-47.5 -193.5t-18.5 -236.5q0 -121 18 -231.5t43.5 -188.5t63.5 -149.5t67.5 -113t66.5 -79.5t48.5 -47.5 t25.5 -19.5l1 -1l-27 -45l-12 -20q-26 13 -58.5 36t-78.5 65.5t-90 94t-88.5 126t-77 157t-53.5 191t-21 225.5z" />
<glyph unicode=")" horiz-adv-x="694" d="M68 -125l1 1q87 62 165 184q167 263 167 645q0 124 -18.5 236.5t-47.5 193.5t-64.5 150t-70.5 113.5t-65 75.5t-47.5 44.5t-19.5 13.5l26 47l12 20q26 -14 58 -37t78.5 -65.5t90 -93.5t88.5 -125.5t77.5 -157t53.5 -190.5t21 -225t-21 -225.5t-53.5 -191t-77 -157 t-88.5 -126t-90 -94t-78.5 -65.5t-58.5 -36l-12 20z" />
<glyph unicode="*" horiz-adv-x="761" d="M78 1016l192 149l-192 152l20 37l228 -92l32 243h45l33 -243l228 92l20 -37l-192 -152l192 -149l-10 -21l-10 -16l-228 92l-33 -244h-45l-32 244l-228 -92l-10 16z" />
<glyph unicode="+" horiz-adv-x="962" d="M102 512v94h326v336h107v-336h325v-94h-325v-336h-107v336h-326z" />
<glyph unicode="," horiz-adv-x="456" d="M98 88l133 137l134 -137l-125 -420h-33q2 13 4 35t2 83t-8.5 112.5t-35.5 106.5t-71 83z" />
<glyph unicode="-" horiz-adv-x="724" d="M102 506v106h521v-106h-521z" />
<glyph unicode="." horiz-adv-x="430" d="M82 106l133 138l133 -138l-133 -135z" />
<glyph unicode="/" horiz-adv-x="978" d="M16 -117l795 1749h139l-794 -1749h-140z" />
<glyph unicode="0" horiz-adv-x="1456" d="M102 745q0 175 42.5 315.5t107.5 226.5t149.5 144t162 80.5t151.5 22.5q57 0 115 -11t121.5 -38t121 -67.5t109.5 -103t89.5 -140.5t60 -185.5t22.5 -232.5q0 -174 -42.5 -314.5t-108 -226t-149.5 -143.5t-161.5 -80.5t-149.5 -22.5q-57 0 -116 11t-123 38t-121 67 t-109 103t-90 140.5t-60 184.5t-22 232zM313 805q0 -352 123 -561t330 -209q180 0 278.5 176t98.5 494q0 350 -122.5 557.5t-328.5 207.5q-180 0 -279.5 -174.5t-99.5 -490.5z" />
<glyph unicode="1" horiz-adv-x="765" d="M82 1329v23l401 182v-1344l119 -172v-18h-430v18l127 172v1139h-217z" />
<glyph unicode="2" horiz-adv-x="1093" d="M74 133q108 116 173 187t148.5 167t131.5 160t100.5 144t79.5 142.5t45 131t18 133.5q0 132 -60.5 202t-177.5 70q-95 0 -155 -49.5t-60 -128.5q0 -113 103 -174l-158 -153q-64 44 -98.5 111t-34.5 143q0 141 114.5 228t301.5 87q201 0 316.5 -88t115.5 -242 q0 -51 -12 -103.5t-30.5 -101.5t-54.5 -107t-69.5 -106.5t-91 -115t-104 -117.5t-123 -127.5t-133 -131.5t-148.5 -144h760l69 -132v-18h-909z" />
<glyph unicode="3" horiz-adv-x="1173" d="M61 236l215 126q-7 -49 8.5 -105.5t51 -108t99.5 -85.5t145 -34q135 0 219 97.5t84 268.5q0 387 -451 387v52q163 15 259 115.5t102 244.5q5 116 -55.5 198.5t-182.5 82.5q-94 0 -151.5 -49.5t-57.5 -129.5q0 -81 49 -125l-180 -124q-57 75 -57 172q0 42 11 82.5t40 83.5 t73 75.5t116 53t163 20.5q186 0 302 -86.5t116 -245.5q0 -151 -108.5 -258.5t-264.5 -122.5q219 3 346 -105.5t127 -307.5q0 -89 -31 -163t-82 -124t-117.5 -84.5t-135.5 -50t-138 -15.5q-174 0 -313.5 71t-200.5 194z" />
<glyph unicode="4" horiz-adv-x="1175" d="M45 422v61l657 1047l140 -84v-911h280v-113h-280v-229l106 -173v-20h-401v20l112 173v229h-614zM160 535h499v784z" />
<glyph unicode="5" horiz-adv-x="1220" d="M74 256l207 106q0 -152 81.5 -240.5t219.5 -88.5q158 0 244.5 106.5t86.5 300.5q0 197 -97 312.5t-265 115.5q-84 0 -161 -29t-132 -81l-76 45l84 702h697l32 -151h-665l-66 -496q43 49 136.5 81t193.5 32q236 0 382 -135t146 -353q0 -235 -147 -373.5t-397 -138.5 q-179 0 -319.5 79.5t-184.5 205.5z" />
<glyph unicode="6" horiz-adv-x="1318" d="M102 733q0 366 171 583.5t444 217.5q276 0 397 -164l-180 -113q-16 89 -79 155.5t-153 66.5q-348 0 -378 -688q64 93 167.5 142.5t231.5 49.5q232 0 369 -133.5t137 -360.5q0 -149 -75 -268.5t-200 -184.5t-272 -65q-174 0 -306.5 96.5t-203 269.5t-70.5 396zM322 647 q2 -264 107 -431t271 -167q147 0 234.5 118.5t87.5 313.5q0 184 -95 292t-257 108q-120 0 -211 -61.5t-137 -172.5z" />
<glyph unicode="7" horiz-adv-x="1044" d="M53 1217l88 288h826l24 -188l-356 -635q-57 -98 -116.5 -308.5t-59.5 -373.5h-248q0 58 26.5 142t59 156t88 172.5t86 150.5t80.5 131l350 602h-690l-139 -137h-19z" />
<glyph unicode="8" horiz-adv-x="1202" d="M106 367q0 157 82.5 257.5t233.5 172.5q-58 30 -100.5 60.5t-79.5 73.5t-56.5 100t-19.5 128q0 172 114 272.5t308 100.5q88 0 164.5 -20t138 -59t96.5 -104t35 -149q0 -215 -309 -340q57 -23 97 -42t88 -47.5t80.5 -61.5t61 -75.5t42.5 -98t14 -121.5 q0 -139 -67.5 -241.5t-178 -153t-246.5 -50.5q-220 0 -359 105.5t-139 292.5zM272 395q0 -169 93 -265.5t256 -96.5q153 0 241 86.5t88 238.5q0 46 -12 86.5t-30 70.5t-50 58.5t-60.5 47.5t-74 41.5t-77.5 36t-84.5 35t-82.5 34.5q-207 -125 -207 -373zM295 1221 q0 -41 10.5 -76.5t25 -62t43 -52t52.5 -42.5t65 -37t69.5 -31.5t76.5 -30.5q115 58 164 130.5t49 180.5q0 128 -74.5 200.5t-208.5 72.5q-123 0 -197.5 -69t-74.5 -183z" />
<glyph unicode="9" horiz-adv-x="1239" d="M90 1077q0 201 139.5 328t360.5 127q267 0 407 -173.5t140 -510.5q0 -421 -151 -649t-433 -228q-147 0 -261.5 53t-174.5 148l178 143q12 -131 84 -203.5t188 -72.5q180 0 265.5 193t91.5 587q-63 -90 -153.5 -138t-195.5 -48q-223 0 -354 120t-131 324zM281 1108 q0 -171 86.5 -269t232.5 -98q110 0 193 54t129 155q-9 265 -91.5 388.5t-242.5 123.5q-138 0 -222.5 -97t-84.5 -257z" />
<glyph unicode=":" horiz-adv-x="512" d="M119 106l133 138l133 -138l-133 -135zM121 719l133 137l133 -137l-133 -135z" />
<glyph unicode=";" horiz-adv-x="516" d="M123 88l133 137l133 -137l-125 -420h-33q2 13 4.5 35t2 83t-8.5 112.5t-35 106.5t-71 83zM123 643l133 137l133 -137l-133 -135z" />
<glyph unicode="&#x3c;" horiz-adv-x="913" d="M117 530v35l667 463v-143l-419 -338l419 -324v-155z" />
<glyph unicode="=" horiz-adv-x="835" d="M152 440v95h499v-95h-499zM152 688v94h499v-94h-499z" />
<glyph unicode="&#x3e;" horiz-adv-x="901" d="M117 68v155l420 324l-420 338v143l667 -463v-35z" />
<glyph unicode="?" horiz-adv-x="952" d="M63 1186q0 154 109.5 250t282.5 96q198 0 305.5 -92.5t107.5 -251.5q0 -70 -23 -129.5t-60 -104t-81.5 -87t-88.5 -89t-81 -99t-60 -129t-23 -167.5h-64q0 102 17.5 185t45 139t61 103t66.5 87t60.5 81t45 95.5t17.5 120.5q0 124 -69 197t-185 73q-100 0 -162.5 -53.5 t-62.5 -142.5q0 -100 76 -144l-68 -213q-78 43 -122 116t-44 159zM287 100l133 138l133 -138l-133 -135z" />
<glyph unicode="@" horiz-adv-x="1804" d="M164 502q0 165 59 309t162 246.5t248 161.5t311 59q204 0 361.5 -79t246 -227t88.5 -343q0 -109 -23 -195.5t-59 -140.5t-85.5 -89.5t-98 -50t-100.5 -14.5q-73 0 -127 26.5t-62 63.5q-83 -90 -229 -90q-130 0 -212.5 90t-82.5 220q0 178 111.5 300.5t285.5 122.5 q73 0 118.5 -16t94.5 -51l99 26h22l-82 -487q-7 -44 14.5 -69t65.5 -25q95 0 145 101t50 278q0 133 -41 237.5t-114 171t-171 101.5t-215 35q-265 0 -428.5 -185.5t-163.5 -486.5q0 -292 163.5 -472t428.5 -180q82 0 152 10.5t149 38t153 84.5t136 142l59 -43 q-111 -166 -284.5 -251t-364.5 -85q-166 0 -311 57.5t-248 157.5t-162 240.5t-59 300.5zM707 467q0 -99 48.5 -163t143.5 -64q113 0 188 86l68 413q-59 62 -158 62q-70 0 -126.5 -28.5t-91.5 -76.5t-53.5 -106.5t-18.5 -122.5z" />
<glyph unicode="A" horiz-adv-x="1419" d="M25 0v18l135 172l448 1121l-61 151l188 56l533 -1328l114 -172v-18h-413v18l100 172l-145 353h-529l-139 -353l129 -172v-18h-360zM422 610h475l-244 590z" />
<glyph unicode="B" horiz-adv-x="1366" d="M102 1487v18h492q272 0 397 -81.5t125 -254.5q0 -126 -94 -218t-254 -124q223 0 363.5 -115t140.5 -298q0 -203 -139.5 -323t-376.5 -120q-106 0 -191.5 37.5t-138.5 106.5v-115h-301v18l117 172v1127zM430 213q43 -78 124 -121t185 -43q164 0 251 91t87 249 q0 184 -108 285.5t-303 101.5h-236v-563zM430 838h143q168 0 268.5 85t100.5 242q0 141 -85.5 210t-262.5 69h-164v-606z" />
<glyph unicode="C" horiz-adv-x="1556" d="M90 752q0 232 95 410.5t264.5 275t386.5 96.5q65 0 135 -11.5t152 -42t152 -76t131 -121.5t93 -171l-188 -172q-5 52 -20 109t-41.5 119t-67.5 117t-92.5 99.5t-122.5 70.5t-152 26q-244 0 -389 -174.5t-145 -470.5q0 -221 74.5 -392.5t209.5 -266.5t309 -95 q180 0 308 90t170 223h57v-395h-29l-120 88q-150 -117 -416 -117q-220 0 -392 98.5t-267 276.5t-95 406z" />
<glyph unicode="D" horiz-adv-x="1474" d="M86 1485v20h512q381 0 583.5 -206t202.5 -582q0 -158 -37.5 -286.5t-99.5 -212.5t-144.5 -141t-168.5 -81.5t-176 -24.5q-114 0 -200 38.5t-126 107.5v-117h-297v18l119 172v1127zM438 203q43 -71 120 -109.5t167 -38.5q77 0 142 19.5t124 67.5t100.5 122t66 189.5 t24.5 263.5q0 120 -23.5 228.5t-71.5 200t-116.5 157.5t-164 103.5t-208.5 37.5h-160v-1241z" />
<glyph unicode="E" horiz-adv-x="1339" d="M70 1487v18h1020l73 -329h-33l-256 268h-462v-580h338l147 105h21v-312h-21l-147 142h-338v-733h354q56 0 105 16.5t81.5 41t58.5 57.5t40 62t22 58l184 -199q-83 -67 -167 -87q-67 -16 -194 -16q-32 0 -67 1h-731v18l129 170v1127z" />
<glyph unicode="F" horiz-adv-x="1220" d="M86 1487v18h999l74 -329h-33l-256 268h-458v-578h282l146 105h20v-309h-20l-146 139h-282v-611l123 -172v-18h-431v18l123 172v1127z" />
<glyph unicode="G" horiz-adv-x="1601" d="M90 770q0 168 55.5 310.5t153 242t236.5 155.5t301 56q65 0 135 -11.5t152 -42t152 -76t131 -121.5t93 -171l-188 -172q-5 52 -20 108.5t-42 119t-69 117.5t-95.5 99.5t-127 70.5t-158.5 26q-238 0 -378 -174.5t-140 -470.5q0 -216 75 -385t208 -262t300 -93 q117 0 208.5 34.5t146.5 94t83.5 134t28.5 159.5l-305 166v23h451v-707h-29l-109 143q-181 -172 -487 -172q-159 0 -299.5 59t-242.5 163t-161 254t-59 323z" />
<glyph unicode="H" horiz-adv-x="1540" d="M102 0v20l123 170v1131l-114 166v18h413v-18l-114 -166v-516h720v516l-114 166v18h414v-18l-115 -166v-1131l123 -170v-20h-430v20l122 170v549h-720v-549l122 -170v-20h-430z" />
<glyph unicode="I" horiz-adv-x="641" d="M115 0v20l114 170v1131l-79 164v20h342v-20l-78 -164v-1131l112 -170v-20h-411z" />
<glyph unicode="J" horiz-adv-x="1101" d="M45 295q0 106 64 188l200 -133q-88 -34 -88 -133q0 -87 64 -138.5t166 -51.5q243 0 243 313v979l-209 168v18h510v-18l-116 -168v-928q0 -37 -3.5 -71t-14.5 -77.5t-29 -80t-50.5 -73t-75 -62t-106 -41t-141.5 -15.5q-183 0 -298.5 90.5t-115.5 233.5z" />
<glyph unicode="K" horiz-adv-x="1333" d="M102 0v18l123 172v1127l-114 168v20h413v-20l-114 -168v-477l528 483l-82 164v18h389v-20l-209 -168l-501 -451h157l576 -932h-31l-256 115l-483 785l-88 -80v-564l122 -172v-18h-430z" />
<glyph unicode="L" horiz-adv-x="1189" d="M102 1483v22h414v-22l-115 -162v-1255h279q70 0 127.5 24.5t92.5 63.5t55 78t26 75l184 -137q-9 -30 -22 -52t-45 -45.5t-81 -38.5t-131.5 -24.5t-193.5 -9.5h-583v18l108 170v1133z" />
<glyph unicode="M" horiz-adv-x="1794" d="M74 0v18l127 172l190 1115l-57 163l184 48l338 -1123l25 -82l256 1006l-33 153l188 46l287 -1326l117 -172v-18h-422v18l112 172l-212 977l-310 -1181h-53l-362 1161l-164 -957l127 -172v-18h-338z" />
<glyph unicode="N" horiz-adv-x="1474" d="M86 0v18l127 172v1125l-127 172v18h231l859 -1159v973l-123 168v18h336v-18l-123 -168v-1331h-74l-889 1220v-1018l127 -172v-18h-344z" />
<glyph unicode="O" horiz-adv-x="1748" d="M90 752q0 225 96.5 402.5t275 278.5t410.5 101t412 -100.5t277.5 -278t97.5 -403.5q0 -221 -98.5 -399t-279 -280t-409.5 -102q-230 0 -409 101.5t-276 279t-97 400.5zM299 856q0 -219 82 -408t225.5 -302t313.5 -113q238 0 384 171t146 441q0 226 -86.5 417t-231.5 301 t-313 110q-160 0 -279.5 -83t-180 -222t-60.5 -312z" />
<glyph unicode="P" horiz-adv-x="1255" d="M102 1487v18h478q47 0 92 -3t105.5 -13.5t112 -27.5t104 -48t89 -71.5t59.5 -101t23 -134.5q0 -188 -132.5 -292.5t-364.5 -104.5q-134 0 -246 59v-578l123 -172v-18h-430v18l123 172v1127zM422 844q105 -62 225 -62q40 0 80 7t87.5 29.5t83.5 57.5t60.5 97t24.5 143 q0 328 -399 328h-162v-600z" />
<glyph unicode="Q" horiz-adv-x="1779" d="M90 754q0 225 98.5 403t277.5 277.5t408 99.5q174 0 321.5 -58.5t249.5 -162t159 -247.5t57 -312q0 -282 -152 -486q111 -94 164 -237l-235 -121q10 48 10 92q0 87 -29 166q-216 -197 -545 -197q-175 0 -322 58.5t-248 162t-157.5 248.5t-56.5 314zM299 860 q0 -242 79 -430.5t222.5 -292.5t327.5 -104q46 0 104 4q-98 3 -169.5 48t-71.5 130q0 88 92 143.5t221 55.5q155 0 291 -68q55 137 55 305q0 121 -28 240.5t-83 224t-129 185t-173 127.5t-208 47q-161 0 -282.5 -81t-184.5 -219.5t-63 -314.5zM907 227q0 -62 49 -98.5 t129 -36.5q88 0 157.5 47.5t115.5 132.5q-90 107 -252 107q-85 0 -142 -41.5t-57 -110.5z" />
<glyph unicode="R" horiz-adv-x="1259" d="M102 1487v18h428q45 0 88 -3t100.5 -12.5t106 -25.5t98 -44.5t84.5 -66t56.5 -93.5t21.5 -125q0 -65 -21 -119t-53.5 -90t-79.5 -64t-92 -44t-98 -26.5t-90 -14t-76 -5.5l175 -61l485 -766h-33l-244 100l-471 727h-65v-582l123 -172v-18h-430v18l123 172v1127zM422 834 h135q176 0 264 76.5t88 234.5q0 299 -383 299h-104v-610z" />
<glyph unicode="S" horiz-adv-x="1224" d="M123 0v401h59q14 -74 43 -133t61.5 -96t75.5 -63.5t76 -39t72.5 -19.5t56 -8t35.5 -1q72 0 135.5 16t115.5 48t82 86t30 124q0 71 -28 128t-75.5 95.5t-108.5 70.5t-129 59.5t-136 56.5t-129 67t-108.5 85.5t-75.5 117t-28 156.5t29.5 155.5t76 110.5t108.5 69t121 37.5 t120 10.5q170 0 297.5 -69t181.5 -191l-194 -135h-23q15 58 15 88q0 121 -74 185.5t-211 64.5q-126 0 -208.5 -68.5t-82.5 -183.5q0 -63 28 -114t76 -87.5t109.5 -68t129.5 -59.5t136.5 -58t130 -68.5t109.5 -84.5t76 -113t28 -148q0 -216 -146 -334.5t-386 -118.5 q-91 0 -171 24.5t-130 67.5l-146 -63h-24z" />
<glyph unicode="T" horiz-adv-x="1323" d="M37 1167l65 338h1119l65 -338h-33l-256 277h-243v-1254l127 -172v-18h-439v18l127 172v1254h-243l-256 -277h-33z" />
<glyph unicode="U" horiz-adv-x="1456" d="M102 1489v16h410v-16l-111 -170v-930q0 -77 31 -139.5t83.5 -101.5t117.5 -59.5t135 -20.5q83 0 148 22.5t104 56.5t64 78.5t34.5 84t9.5 77.5v932l-122 170v16h352v-16l-123 -170v-918q0 -30 -4.5 -63t-18.5 -76t-35.5 -82t-59.5 -78t-87 -67.5t-121 -46t-159 -17.5 q-76 0 -150 14.5t-144 46.5t-122.5 79t-84.5 117t-32 155v936z" />
<glyph unicode="V" horiz-adv-x="1386" d="M49 1487v18h430v-18l-106 -168l405 -1047l371 1047l-115 168v18h316v-18l-117 -168l-488 -1348h-61l-518 1348z" />
<glyph unicode="W" horiz-adv-x="1904" d="M45 1487v18h387v-18l-80 -166l338 -989l217 801l-110 354v18h329v-18l-51 -191l266 -962l324 987l-104 166v18h307v-18l-111 -166l-457 -1350h-43l-301 1014l-280 -1014h-49l-482 1350z" />
<glyph unicode="X" horiz-adv-x="1320" d="M41 0v18l133 172l381 592l-340 539l-119 166v18h434v-18l-94 -166l246 -391l258 391l-94 166v18h319v-18l-121 -166l-313 -467l418 -664l119 -172v-18h-451v18l111 172l-322 508l-332 -508l123 -172v-18h-356z" />
<glyph unicode="Y" horiz-adv-x="1171" d="M45 1487v18h408v-18l-99 -166l283 -500l299 498l-115 168v18h309v-18l-450 -744v-553l123 -172v-18h-430v18l123 172v519z" />
<glyph unicode="Z" horiz-adv-x="1290" d="M61 0v20l795 1424h-502l-264 -252h-29l86 313h949v-18l-791 -1421h453q61 0 109.5 20.5t76.5 51t46 67.5t23.5 67.5t2.5 53.5l221 -191q-28 -39 -75.5 -66.5t-90 -40.5t-104.5 -20t-91 -7.5t-79 -0.5h-736z" />
<glyph unicode="[" horiz-adv-x="509" d="M106 -254v1786h375v-66h-213v-1656h211v-64h-373z" />
<glyph unicode="\" horiz-adv-x="978" d="M16 1632h140l794 -1749h-139z" />
<glyph unicode="]" horiz-adv-x="509" d="M27 1466v66h374v-1786h-372v64h211v1656h-213z" />
<glyph unicode="^" horiz-adv-x="835" d="M33 1114v19l346 401h78l346 -401v-19h-105l-280 258l-287 -258h-98z" />
<glyph unicode="_" horiz-adv-x="1048" d="M0 0h1049v-102h-1049v102z" />
<glyph unicode="`" horiz-adv-x="440" d="M39 1493v12h205l162 -272h-31z" />
<glyph unicode="a" horiz-adv-x="1048" d="M82 203q0 61 25.5 113.5t65 89t96 67t111 49t119 32.5t109.5 20.5t92 11.5v139q0 37 -5 65t-20.5 60t-51 50t-88.5 18q-63 0 -107.5 -35.5t-44.5 -100.5q0 -64 63 -112l-178 -121q-42 42 -60 91.5t-18 88.5q0 115 100 178.5t255 63.5q88 0 158 -24.5t117.5 -84.5 t47.5 -149v-537l101 -158v-18h-269v92q-19 -17 -44.5 -33.5t-69.5 -38.5t-105.5 -35.5t-128.5 -13.5q-116 0 -193 58.5t-77 173.5zM285 207q0 -74 42.5 -115t118.5 -41q122 0 254 115v358q-63 -9 -113.5 -20t-109.5 -35t-98.5 -56.5t-66.5 -85.5t-27 -120z" />
<glyph unicode="b" horiz-adv-x="1222" d="M90 0v20l115 156v977q0 109 -26 169.5t-79 94.5l234 121h47v-672q41 48 123 76.5t164 28.5q206 0 335.5 -136t129.5 -352q0 -144 -56.5 -259.5t-167 -184t-258.5 -68.5q-169 0 -280 105v-76h-281zM375 168q90 -119 256 -119q158 0 238.5 101.5t80.5 295.5q0 190 -93 302 t-251 112q-71 0 -133.5 -30t-97.5 -82v-580z" />
<glyph unicode="c" horiz-adv-x="1060" d="M90 477q0 218 145 356t375 138q301 0 410 -228l-184 -69q0 117 -63 180.5t-173 63.5q-133 0 -223 -113.5t-90 -286.5q0 -195 104 -313.5t258 -118.5q203 0 326 172l57 -27q-56 -128 -162.5 -194t-257.5 -66q-227 0 -374.5 139t-147.5 367z" />
<glyph unicode="d" horiz-adv-x="1198" d="M82 477q0 214 129.5 354t351.5 140q162 0 268 -86v258q0 177 -100 241l225 121h41v-1329l115 -156v-20h-281v76q-105 -105 -294 -105q-134 0 -238.5 68.5t-160.5 183.5t-56 254zM258 524q0 -203 93 -321.5t253 -118.5t227 106v601q-43 44 -112.5 74t-147.5 30 q-146 0 -229.5 -100t-83.5 -271z" />
<glyph unicode="e" horiz-adv-x="1079" d="M90 483q0 58 12.5 118.5t46 128t85.5 119t139 86.5t198 36q206 0 319.5 -110.5t113.5 -311.5v-33h-719q2 -64 16 -124.5t43 -117.5t69.5 -99.5t100 -68.5t131.5 -26q83 0 162 39.5t129 124.5l59 -25q-69 -158 -216 -217q-79 -31 -175 -31q-231 0 -372.5 142t-141.5 370z M285 569l536 31q-1 144 -75 231t-181 87q-128 0 -200 -97t-80 -252z" />
<glyph unicode="f" horiz-adv-x="739" d="M78 877v65h172v139q0 127 26 217t74.5 140.5t109.5 73t140 22.5q112 0 196 -35.5t128 -101.5l-168 -135h-45q10 45 10 75q0 68 -37.5 108t-99.5 40q-166 0 -166 -264v-279h291v-65h-291v-701l102 -158v-18h-373v18l103 158v701h-172z" />
<glyph unicode="g" horiz-adv-x="1140" d="M90 -303l154 305q-101 41 -101 139q0 64 53.5 110t143.5 58q-100 42 -157.5 126t-57.5 194q0 152 111 247t290 95q196 0 308 -115l192 100h35v-219l-172 45q35 -68 35 -151q0 -160 -110.5 -258.5t-287.5 -98.5q-70 0 -135 19l-82 -158q69 0 120 -1.5t114.5 -5t110 -9.5 t99 -17t89 -26t72 -36.5t57 -49t34.5 -64t13 -80.5q0 -71 -29.5 -126t-74.5 -88t-107 -54t-119.5 -29t-118.5 -8q-295 0 -479 156zM258 -145q0 -121 83 -186.5t239 -65.5q46 0 90 7t94.5 24.5t81.5 56t31 94.5q0 57 -30 94.5t-77 53.5t-113 24.5t-127.5 9.5t-132.5 7 t-118 18q-21 -67 -21 -137zM301 672q0 -146 70 -243t176 -97q91 0 146 68.5t55 181.5q0 151 -66.5 243.5t-173.5 92.5q-92 0 -149.5 -68t-57.5 -178z" />
<glyph unicode="h" horiz-adv-x="1177" d="M102 1417l226 121h45v-725q100 158 297 158q38 0 78.5 -9t86 -33t80.5 -61.5t58.5 -101t23.5 -143.5v-447l99 -158v-18h-365v18l98 158v422q0 132 -53 205.5t-162 73.5q-101 0 -171 -70.5t-70 -165.5v-465l98 -158v-18h-365v18l99 158v977q0 109 -25.5 169.5t-77.5 94.5z " />
<glyph unicode="i" horiz-adv-x="540" d="M94 0v18l105 158v410q0 109 -25.5 169.5t-77.5 94.5l223 121h48v-795l102 -158v-18h-375zM131 1270l129 135l131 -135l-131 -135z" />
<glyph unicode="j" horiz-adv-x="518" d="M27 -401q86 19 122.5 108t36.5 281v598q0 110 -23.5 170.5t-74.5 93.5l221 121h45v-961q0 -96 -17 -172.5t-54 -138.5t-102 -95.5t-154 -33.5v29zM137 1270l129 135l131 -135l-131 -135z" />
<glyph unicode="k" horiz-adv-x="1101" d="M92 0v18l103 158v944q0 110 -24 170.5t-77 93.5l221 121h47v-942l357 248l-64 107v24h346v-29l-456 -313l366 -424l148 -156v-20h-420v23l82 149l-295 348l-64 -47v-297l101 -158v-18h-371z" />
<glyph unicode="l" horiz-adv-x="565" d="M92 0v20l107 156v944q0 109 -25.5 169.5t-77.5 94.5l226 121h45v-1329l102 -158v-18h-377z" />
<glyph unicode="m" horiz-adv-x="1761" d="M111 0v18l98 158v422q0 108 -24 169t-74 95l221 94h45v-143q47 80 124 119t165 39q214 0 299 -168q39 80 118.5 125t186.5 45q138 0 224.5 -83.5t86.5 -227.5v-486l98 -158v-18h-364v18l98 158v498q0 87 -55.5 145t-149.5 58q-106 0 -168.5 -75.5t-62.5 -203.5v-422 l98 -158v-18h-364v18l98 158v498q0 88 -52 145.5t-141 57.5q-87 0 -163 -72t-76 -182v-447l98 -158v-18h-364z" />
<glyph unicode="n" horiz-adv-x="1198" d="M111 860l225 98h45v-145q48 76 123.5 117t169.5 41q41 0 83.5 -9t90.5 -33t84.5 -61.5t61 -101t24.5 -143.5v-447l98 -158v-18h-364v18l98 158v422q0 132 -56 205.5t-171 73.5q-108 0 -175 -73t-67 -163v-465l98 -158v-18h-364v18l98 158v422q0 109 -25 169.5t-77 92.5z " />
<glyph unicode="o" horiz-adv-x="1187" d="M82 471q0 118 44.5 215t117.5 158t163 94t185 33q96 0 187 -32.5t164.5 -92t118 -154t44.5 -209.5q0 -120 -43.5 -219.5t-114.5 -162t-159 -96.5t-181 -34q-108 0 -202.5 33t-167 95t-114.5 158t-42 214zM283 502q0 -212 95 -344.5t249 -132.5q128 0 203 116t75 312 q0 206 -90.5 335.5t-234.5 129.5q-136 0 -216.5 -112.5t-80.5 -303.5z" />
<glyph unicode="p" horiz-adv-x="1198" d="M90 866l227 90h41l-4 -118q56 66 135.5 99.5t163.5 33.5q201 0 328 -140.5t127 -363.5q0 -135 -53.5 -247t-159 -180.5t-242.5 -68.5q-185 0 -295 113v-338l91 -156v-20h-349v20l93 156v858q0 107 -26 168t-77 94zM358 186q87 -127 250 -127q142 0 231 101t89 276 q0 190 -92 302t-254 112q-69 0 -130 -30t-94 -77v-557z" />
<glyph unicode="q" horiz-adv-x="1183" d="M82 471q0 224 128 362t335 138q170 0 293 -101l114 86h43v-1210l92 -156v-20h-350v20l92 156l-2 309q-116 -84 -280 -84q-128 0 -235.5 67.5t-168.5 182.5t-61 250zM258 524q0 -189 97 -313.5t245 -124.5q71 0 133 24.5t96 71.5v604q-48 50 -114 77.5t-129 27.5 q-153 0 -240.5 -98t-87.5 -269z" />
<glyph unicode="r" horiz-adv-x="905" d="M86 858l225 98h47v-116q45 64 114.5 97.5t152.5 33.5t151.5 -34t108.5 -95l-144 -197l-30 19q0 104 -42 159.5t-124 55.5q-83 0 -135 -64.5t-52 -167.5v-471l99 -158v-18h-367v18l100 158v420q0 108 -26 169t-78 93z" />
<glyph unicode="s" horiz-adv-x="925" d="M102 721q0 116 100.5 183t243.5 67q284 0 373 -174l-186 -138l-27 19q15 37 15 65q0 70 -45.5 122.5t-135.5 52.5q-72 0 -121 -41t-49 -113q0 -50 32 -89.5t83.5 -66t113.5 -51t124 -52.5t113.5 -61.5t83.5 -86t32 -119.5q0 -128 -108 -197.5t-273 -69.5q-146 0 -231 58 l-107 -43h-27v276h48q35 -106 116 -169.5t185 -63.5q106 0 159.5 46t53.5 122q0 42 -24.5 76.5t-64 58t-90.5 47t-104 43.5t-104 48.5t-90.5 60.5t-64 81t-24.5 109z" />
<glyph unicode="t" horiz-adv-x="714" d="M53 877v22l262 346h37v-303h285v-65h-285v-680q0 -63 41 -98.5t101 -35.5t96 33t49 70l47 -19q-5 -26 -21.5 -54.5t-45 -57t-75 -46.5t-102.5 -18q-258 0 -258 242v664h-131z" />
<glyph unicode="u" horiz-adv-x="1138" d="M82 858l199 98h47v-634q0 -119 53 -191t162 -72q68 0 118.5 22t78.5 60t41.5 82.5t13.5 95.5v277q0 113 -19.5 172t-66.5 90l209 98h45v-780l81 -153v-23h-245v102q-41 -62 -101 -96.5t-172 -34.5q-49 0 -96.5 9t-97.5 33.5t-87 62t-61 100t-24 141.5v279 q0 120 -15.5 177t-62.5 85z" />
<glyph unicode="v" horiz-adv-x="1013" d="M27 920v22h354v-18l-86 -144l272 -569l256 571l-84 142v18h252v-22l-67 -134l-365 -815h-74z" />
<glyph unicode="w" horiz-adv-x="1482" d="M47 920v22h320v-22l-66 -140l227 -549l177 449l-99 240v22h332v-22l-78 -183l191 -506l231 560l-72 129v22h230v-20l-66 -142l-336 -809h-59l-227 590l-230 -590h-63l-342 805z" />
<glyph unicode="x" horiz-adv-x="972" d="M16 0v20l136 156l235 311l-346 435v20h381v-22l-72 -140l164 -205l158 205l-70 140v22h277v-20l-121 -146l-199 -252l397 -504v-20h-401v23l74 153l-195 252l-186 -252l76 -153v-23h-308z" />
<glyph unicode="y" horiz-adv-x="1032" d="M16 920v22h369v-18l-86 -144l299 -579l240 581l-95 140v20h265v-22l-68 -134l-442 -1069l73 -127v-20h-264v22l88 125l115 283z" />
<glyph unicode="z" horiz-adv-x="968" d="M63 0v18l562 871h-291l-223 -215h-39l84 268h690v-18l-559 -869h278q47 0 85 26t57.5 63t29.5 70.5t8 55.5l173 -190q-21 -28 -56 -46t-85 -24.5t-82 -8t-87 -1.5h-545z" />
<glyph unicode="{" horiz-adv-x="489" d="M20 614v48q119 0 119 221v381q0 144 83.5 206t242.5 62v-33q-80 0 -131 -71.5t-51 -217.5v-368q0 -101 -34 -142.5t-122 -62.5q91 -21 123.5 -62t32.5 -141v-373q0 -146 51 -215t131 -69v-33q-160 0 -243 60t-83 204v385q0 221 -119 221z" />
<glyph unicode="|" horiz-adv-x="409" d="M154 -551v2056h102v-2056h-102z" />
<glyph unicode="}" horiz-adv-x="489" d="M20 -223q80 0 131.5 69t51.5 215v373q0 101 33.5 142.5t121.5 60.5q-89 22 -122 64.5t-33 140.5v368q0 146 -51.5 217.5t-131.5 71.5v33q159 0 242.5 -62t83.5 -206v-381q0 -221 119 -221v-48q-119 0 -119 -221v-385q0 -144 -83 -204t-243 -60v33z" />
<glyph unicode="~" horiz-adv-x="1007" d="M43 451q0 6 1 16t7.5 38.5t17.5 54.5t33.5 58t52 55t77.5 38.5t106 15.5q53 0 97.5 -15.5t75 -37.5t59 -43.5t64.5 -37t77 -15.5q52 0 92.5 16t61.5 38t35 44.5t18 38.5l4 16h43q0 -6 -1 -16t-7.5 -38.5t-17.5 -54.5t-33.5 -58t-52 -55t-77.5 -38.5t-106 -15.5 q-52 0 -96.5 15.5t-75 37.5t-59 43.5t-64.5 37t-76 15.5q-52 0 -92.5 -16t-61.5 -38t-35 -44.5t-18 -38.5l-4 -16h-45z" />
<glyph unicode="&#xa2;" horiz-adv-x="1060" d="M90 477q0 207 130.5 343t342.5 149v170h80v-168q273 -12 377 -228l-184 -69q0 105 -50.5 167t-142.5 74v-829h6q203 0 326 172l57 -27q-52 -121 -151 -186.5t-238 -73.5v-108h-80v110q-208 15 -340.5 151.5t-132.5 352.5zM287 518q0 -166 77 -278t199 -144v819 q-120 -18 -198 -127t-78 -270z" />
<glyph unicode="&#xa3;" horiz-adv-x="1202" d="M98 0v18q154 135 224.5 267t70.5 299q0 66 -28 145h-224v74h187q-15 26 -54 88t-58 97t-37.5 92t-18.5 112q0 154 118 248t310 94q47 0 91 -6t98.5 -23.5t100.5 -46t90 -78t74 -114.5l-211 -123h-22q9 157 -49.5 243.5t-173.5 86.5q-107 0 -168.5 -71t-61.5 -194 q0 -67 24.5 -131t64 -140t57.5 -134h239v-74h-219q10 -62 10 -119q0 -150 -73.5 -294t-192.5 -263h352q79 0 142.5 26t100.5 67t58 82t27 79l197 -141q-43 -80 -168.5 -123t-317.5 -43h-559z" />
<glyph unicode="&#xa8;" horiz-adv-x="1228" d="M332 1229l112 117l113 -117l-113 -115zM637 1229l113 117l112 -117l-112 -115z" />
<glyph unicode="&#xab;" horiz-adv-x="782" d="M37 528v62l352 270h17v-88l-164 -213l164 -207v-94h-17zM379 528v62l348 270h18v-88l-163 -213l163 -207v-94h-18z" />
<glyph unicode="&#xad;" horiz-adv-x="724" d="M102 506v106h521v-106h-521z" />
<glyph unicode="&#xaf;" horiz-adv-x="696" d="M123 1171v70h450v-70h-450z" />
<glyph unicode="&#xb4;" horiz-adv-x="612" d="M123 1104l162 272h198v-12l-329 -260h-31z" />
<glyph unicode="&#xb5;" horiz-adv-x="1155" d="M102 877l195 98h47v-653q0 -121 54 -193t165 -72q68 0 118.5 22t78.5 60t41.5 83t13.5 97v295q0 113 -19.5 172.5t-66.5 90.5l205 98h45v-799l82 -153v-23h-242v102q-40 -63 -98.5 -98t-163.5 -35q-70 0 -134.5 31t-78.5 80v-539h-27l-137 47v1026q0 120 -15.5 177.5 t-62.5 85.5z" />
<glyph unicode="&#xb6;" horiz-adv-x="987" d="M-20 1010q0 188 132 321t320 133h473v-1894h-14l-133 61v1731h-178v-1792h-15l-133 61v926q-124 0 -228 60.5t-164 165t-60 227.5z" />
<glyph unicode="&#xb8;" horiz-adv-x="1228" d="M123 -387l2 35q24 -6 65 -6q56 0 84.5 21t28.5 69q0 29 -20 51t-52 32.5t-54 15.5t-44 7v17l146 172h57l-84 -121q172 -41 172 -156q0 -147 -213 -147q-46 0 -88 10z" />
<glyph unicode="&#xbb;" horiz-adv-x="782" d="M37 258v94l164 207l-164 213v88h18l348 -270v-62l-348 -270h-18zM377 258v94l164 207l-164 213v88h16l352 -270v-62l-352 -270h-16z" />
<glyph unicode="&#xc0;" horiz-adv-x="1419" d="M25 0v18l135 172l448 1121l-61 151l188 56l533 -1328l114 -172v-18h-413v18l100 172l-145 353h-529l-139 -353l129 -172v-18h-360zM422 610h475l-244 590zM494 1927v12h198l162 -272h-31z" />
<glyph unicode="&#xc1;" horiz-adv-x="1419" d="M25 0v18l135 172l448 1121l-61 151l188 56l533 -1328l114 -172v-18h-413v18l100 172l-145 353h-529l-139 -353l129 -172v-18h-360zM422 610h475l-244 590zM549 1667l162 272h198v-12l-329 -260h-31z" />
<glyph unicode="&#xc2;" horiz-adv-x="1419" d="M25 0v18l135 172l448 1121l-61 151l188 56l533 -1328l114 -172v-18h-413v18l100 172l-145 353h-529l-139 -353l129 -172v-18h-360zM422 610h475l-244 590zM481 1663v12l228 262l227 -262v-12h-90l-135 121l-140 -121h-90z" />
<glyph unicode="&#xc3;" horiz-adv-x="1419" d="M25 0v18l135 172l448 1121l-61 151l188 56l533 -1328l114 -172v-18h-413v18l100 172l-145 353h-529l-139 -353l129 -172v-18h-360zM422 610h475l-244 590zM469 1747q13 52 52.5 79t86.5 27q44 0 102 -26.5t93 -26.5q32 0 59 14t33 35l57 -28q-36 -105 -149 -105 q-36 0 -97.5 28t-97.5 28q-31 0 -54 -14t-30 -38z" />
<glyph unicode="&#xc4;" horiz-adv-x="1419" d="M25 0v18l135 172l448 1121l-61 151l188 56l533 -1328l114 -172v-18h-413v18l100 172l-145 353h-529l-139 -353l129 -172v-18h-360zM422 610h475l-244 590zM444 1792l113 117l113 -117l-113 -115zM750 1792l112 117l113 -117l-113 -115z" />
<glyph unicode="&#xc5;" horiz-adv-x="1419" d="M25 0v18l135 172l448 1121l-61 151l188 56l533 -1328l114 -172v-18h-413v18l100 172l-145 353h-529l-139 -353l129 -172v-18h-360zM422 610h475l-244 590zM575 1792q0 55 40 95t96 40q55 0 95 -39.5t40 -95.5t-40 -95.5t-95 -39.5q-56 0 -96 40t-40 95zM645 1792 q0 -28 19 -47t47 -19t46.5 19t18.5 47t-18.5 47t-46.5 19t-47 -19t-19 -47z" />
<glyph unicode="&#xc6;" horiz-adv-x="2117" d="M25 0v20l135 173l788 1183l-100 111v18h1020l74 -329h-33l-256 276h-463v-586h338l147 101v2h21v-312h-21l-147 142h-338v-746h354q56 0 105 17.5t81.5 43.5t58.5 61t40 65.5t22 60.5l185 -199q-83 -67 -166.5 -87t-261.5 -15h-731v18l129 170v357h-492l-235 -352 l141 -173h-2v-20h-393zM551 612h455v684z" />
<glyph unicode="&#xc7;" horiz-adv-x="1556" d="M90 752q0 232 95 410.5t264.5 275t386.5 96.5q65 0 135 -11.5t152 -42t152 -76t131 -121.5t93 -171l-188 -172q-5 52 -20 109t-41.5 119t-67.5 117t-92.5 99.5t-122.5 70.5t-152 26q-244 0 -389 -174.5t-145 -470.5q0 -221 74.5 -392.5t209.5 -266.5t309 -95 q180 0 308 90t170 223h57v-395h-29l-120 88q-150 -117 -416 -117h-8l-45 -65q172 -41 172 -156q0 -147 -213 -147q-46 0 -88 10l2 35q24 -6 65 -6q56 0 84.5 21t28.5 69q0 29 -20 51t-52 32.5t-54 15.5t-44 7v17l100 118q-307 25 -494.5 239t-187.5 540z" />
<glyph unicode="&#xc8;" horiz-adv-x="1339" d="M70 1487v18h1020l73 -329h-33l-256 268h-462v-580h338l147 105h21v-312h-21l-147 142h-338v-733h354q56 0 105 16.5t81.5 41t58.5 57.5t40 62t22 58l184 -199q-83 -67 -166.5 -87t-261.5 -15h-731v18l129 170v1127zM403 1927v12h199l162 -272h-31z" />
<glyph unicode="&#xc9;" horiz-adv-x="1339" d="M70 1487v18h1020l73 -329h-33l-256 268h-462v-580h338l147 105h21v-312h-21l-147 142h-338v-733h354q56 0 105 16.5t81.5 41t58.5 57.5t40 62t22 58l184 -199q-83 -67 -166.5 -87t-261.5 -15h-731v18l129 170v1127zM459 1667l162 272h198v-12l-330 -260h-30z" />
<glyph unicode="&#xca;" horiz-adv-x="1339" d="M70 1487v18h1020l73 -329h-33l-256 268h-462v-580h338l147 105h21v-312h-21l-147 142h-338v-733h354q56 0 105 16.5t81.5 41t58.5 57.5t40 62t22 58l184 -199q-83 -67 -166.5 -87t-261.5 -15h-731v18l129 170v1127zM391 1663v12l227 262l228 -262v-12h-90l-135 121 l-140 -121h-90z" />
<glyph unicode="&#xcb;" horiz-adv-x="1339" d="M70 1487v18h1020l73 -329h-33l-256 268h-462v-580h338l147 105h21v-312h-21l-147 142h-338v-733h354q56 0 105 16.5t81.5 41t58.5 57.5t40 62t22 58l184 -199q-83 -67 -166.5 -87t-261.5 -15h-731v18l129 170v1127zM354 1792l113 117l113 -117l-113 -115zM659 1792 l113 117l113 -117l-113 -115z" />
<glyph unicode="&#xcc;" horiz-adv-x="641" d="M115 0v20l114 170v1131l-79 164v20h342v-20l-78 -164v-1131l112 -170v-20h-411zM160 1667l162 272h198v-12l-330 -260h-30z" />
<glyph unicode="&#xcd;" horiz-adv-x="641" d="M104 1927v12h199l162 -272h-31zM115 0v20l114 170v1131l-79 164v20h342v-20l-78 -164v-1131l112 -170v-20h-411z" />
<glyph unicode="&#xce;" horiz-adv-x="641" d="M92 1663v12l227 262l228 -262v-12h-90l-135 121l-140 -121h-90zM115 0v20l114 170v1131l-79 164v20h342v-20l-78 -164v-1131l112 -170v-20h-411z" />
<glyph unicode="&#xcf;" horiz-adv-x="638" d="M53 1720l113 117l113 -117l-113 -114zM115 0v20l114 170v1131l-79 164v20h342v-20l-78 -164v-1131l112 -170v-20h-411zM358 1720l113 117l113 -117l-113 -114z" />
<glyph unicode="&#xd0;" horiz-adv-x="1474" d="M86 1485v20h512q381 0 583.5 -206t202.5 -582q0 -158 -37.5 -286.5t-99.5 -212.5t-144.5 -141t-168.5 -81.5t-176 -24.5q-114 0 -200 38.5t-126 107.5v-117h-297v18l119 172v469h-117v66h117v592zM438 203q43 -71 120 -109.5t167 -38.5q77 0 142 19.5t124 67.5t100.5 122 t66 189.5t24.5 263.5q0 120 -23.5 228.5t-71.5 200t-116.5 157.5t-164 103.5t-208.5 37.5h-160v-719h158v-66h-158v-456z" />
<glyph unicode="&#xd1;" horiz-adv-x="1474" d="M86 0v18l127 172v1125l-127 172v18h231l859 -1159v973l-123 168v18h336v-18l-123 -168v-1331h-74l-889 1220v-1018l127 -172v-18h-344zM496 1747q13 52 52.5 79t86.5 27q45 0 102 -26.5t92 -26.5q32 0 59.5 14t33.5 35l57 -28q-36 -105 -150 -105q-36 0 -97 28t-97 28 q-31 0 -54 -14t-30 -38z" />
<glyph unicode="&#xd2;" horiz-adv-x="1748" d="M90 752q0 225 96.5 402.5t275 278.5t410.5 101t412 -100.5t277.5 -278t97.5 -403.5q0 -221 -98.5 -399t-279 -280t-409.5 -102q-230 0 -409 101.5t-276 279t-97 400.5zM299 856q0 -219 82 -408t225.5 -302t313.5 -113q238 0 384 171t146 441q0 226 -86.5 417t-231.5 301 t-313 110q-160 0 -279.5 -83t-180 -222t-60.5 -312zM657 1927v12h199l162 -272h-31z" />
<glyph unicode="&#xd3;" horiz-adv-x="1748" d="M90 752q0 225 96.5 402.5t275 278.5t410.5 101t412 -100.5t277.5 -278t97.5 -403.5q0 -221 -98.5 -399t-279 -280t-409.5 -102q-230 0 -409 101.5t-276 279t-97 400.5zM299 856q0 -219 82 -408t225.5 -302t313.5 -113q238 0 384 171t146 441q0 226 -86.5 417t-231.5 301 t-313 110q-160 0 -279.5 -83t-180 -222t-60.5 -312zM713 1667l161 272h199v-12l-330 -260h-30z" />
<glyph unicode="&#xd4;" horiz-adv-x="1748" d="M90 752q0 225 96.5 402.5t275 278.5t410.5 101t412 -100.5t277.5 -278t97.5 -403.5q0 -221 -98.5 -399t-279 -280t-409.5 -102q-230 0 -409 101.5t-276 279t-97 400.5zM299 856q0 -219 82 -408t225.5 -302t313.5 -113q238 0 384 171t146 441q0 226 -86.5 417t-231.5 301 t-313 110q-160 0 -279.5 -83t-180 -222t-60.5 -312zM645 1663v12l227 262l228 -262v-12h-90l-136 121l-139 -121h-90z" />
<glyph unicode="&#xd5;" horiz-adv-x="1748" d="M90 752q0 225 96.5 402.5t275 278.5t410.5 101t412 -100.5t277.5 -278t97.5 -403.5q0 -221 -98.5 -399t-279 -280t-409.5 -102q-230 0 -409 101.5t-276 279t-97 400.5zM299 856q0 -219 82 -408t225.5 -302t313.5 -113q238 0 384 171t146 441q0 226 -86.5 417t-231.5 301 t-313 110q-160 0 -279.5 -83t-180 -222t-60.5 -312zM633 1747q13 52 52.5 79t86.5 27q44 0 102 -26.5t93 -26.5q32 0 59 14t33 35l57 -28q-36 -105 -149 -105q-36 0 -97.5 28t-97.5 28q-31 0 -54 -14t-30 -38z" />
<glyph unicode="&#xd6;" horiz-adv-x="1748" d="M90 752q0 225 96.5 402.5t275 278.5t410.5 101t412 -100.5t277.5 -278t97.5 -403.5q0 -221 -98.5 -399t-279 -280t-409.5 -102q-230 0 -409 101.5t-276 279t-97 400.5zM299 856q0 -219 82 -408t225.5 -302t313.5 -113q238 0 384 171t146 441q0 226 -86.5 417t-231.5 301 t-313 110q-160 0 -279.5 -83t-180 -222t-60.5 -312zM608 1792l113 117l113 -117l-113 -115zM913 1792l113 117l113 -117l-113 -115z" />
<glyph unicode="&#xd7;" horiz-adv-x="700" d="M143 418l142 141l-142 141l66 66l141 -141l142 141l65 -66l-141 -141l141 -141l-65 -66l-142 142l-141 -142z" />
<glyph unicode="&#xd8;" horiz-adv-x="1748" d="M90 752q0 225 96.5 402.5t275 278.5t410.5 101q244 0 431 -113l106 144h135l-153 -205q128 -105 198 -262t70 -346q0 -221 -98.5 -399t-279 -280t-409.5 -102q-245 0 -436 117l-108 -145h-123l151 204q-127 105 -196.5 262t-69.5 343zM299 856q0 -157 44 -301.5 t124 -259.5l741 999q-173 179 -389 179q-160 0 -279.5 -83t-180 -222t-60.5 -312zM532 215q79 -86 179.5 -134t208.5 -48q238 0 384 171t146 441q0 161 -45.5 306.5t-126.5 258.5z" />
<glyph unicode="&#xd9;" horiz-adv-x="1456" d="M102 1489v16h410v-16l-111 -170v-930q0 -77 31 -139.5t83.5 -101.5t117.5 -59.5t135 -20.5q83 0 148 22.5t104 56.5t64 78.5t34.5 84t9.5 77.5v932l-122 170v16h352v-16l-123 -170v-918q0 -30 -4.5 -63t-18.5 -76t-35.5 -82t-59.5 -78t-87 -67.5t-121 -46t-159 -17.5 q-76 0 -150 14.5t-144 46.5t-122.5 79t-84.5 117t-32 155v936zM526 1927v12h199l162 -272h-31z" />
<glyph unicode="&#xda;" horiz-adv-x="1456" d="M102 1489v16h410v-16l-111 -170v-930q0 -77 31 -139.5t83.5 -101.5t117.5 -59.5t135 -20.5q83 0 148 22.5t104 56.5t64 78.5t34.5 84t9.5 77.5v932l-122 170v16h352v-16l-123 -170v-918q0 -30 -4.5 -63t-18.5 -76t-35.5 -82t-59.5 -78t-87 -67.5t-121 -46t-159 -17.5 q-76 0 -150 14.5t-144 46.5t-122.5 79t-84.5 117t-32 155v936zM582 1667l161 272h199v-12l-330 -260h-30z" />
<glyph unicode="&#xdb;" horiz-adv-x="1456" d="M102 1489v16h410v-16l-111 -170v-930q0 -77 31 -139.5t83.5 -101.5t117.5 -59.5t135 -20.5q83 0 148 22.5t104 56.5t64 78.5t34.5 84t9.5 77.5v932l-122 170v16h352v-16l-123 -170v-918q0 -30 -4.5 -63t-18.5 -76t-35.5 -82t-59.5 -78t-87 -67.5t-121 -46t-159 -17.5 q-76 0 -150 14.5t-144 46.5t-122.5 79t-84.5 117t-32 155v936zM514 1663v12l227 262l228 -262v-12h-90l-136 121l-139 -121h-90z" />
<glyph unicode="&#xdc;" horiz-adv-x="1456" d="M102 1489v16h410v-16l-111 -170v-930q0 -77 31 -139.5t83.5 -101.5t117.5 -59.5t135 -20.5q83 0 148 22.5t104 56.5t64 78.5t34.5 84t9.5 77.5v932l-122 170v16h352v-16l-123 -170v-918q0 -30 -4.5 -63t-18.5 -76t-35.5 -82t-59.5 -78t-87 -67.5t-121 -46t-159 -17.5 q-76 0 -150 14.5t-144 46.5t-122.5 79t-84.5 117t-32 155v936zM477 1792l113 117l112 -117l-112 -115zM782 1792l113 117l113 -117l-113 -115z" />
<glyph unicode="&#xdd;" horiz-adv-x="1171" d="M45 1487v18h408v-18l-99 -166l283 -500l299 498l-115 168v18h309v-18l-450 -744v-553l123 -172v-18h-430v18l123 172v519zM524 1667l162 272h199v-12l-330 -260h-31z" />
<glyph unicode="&#xde;" horiz-adv-x="1312" d="M115 -410l114 170v1561l-79 164v20h342v-20l-78 -164v-320h194q292 0 453.5 -118.5t161.5 -333.5q0 -217 -163.5 -337t-459.5 -120h-186v-332l112 -170v-20h-411v20zM414 162h194q198 0 307 101.5t109 285.5q0 183 -112.5 283t-315.5 100h-182v-770z" />
<glyph unicode="&#xdf;" horiz-adv-x="1314" d="M86 0v20l109 158v871q0 127 33.5 223.5t91.5 152t129 82.5t153 27q175 0 274 -83.5t99 -233.5q0 -81 -45 -156t-109 -117q185 -6 300.5 -144.5t115.5 -355.5q0 -209 -131 -341t-338 -132q-284 0 -365 168l195 160h35q-31 -42 -31 -100q0 -77 48 -122.5t126 -45.5 q128 0 201.5 106t73.5 287q0 195 -93 309.5t-251 114.5q-60 0 -134 -23l-16 52q21 8 48 24.5t63.5 48t65.5 70t51 95.5t24 120q0 116 -59 188t-158 72q-32 0 -62 -8t-62 -32t-55 -61.5t-38 -102t-15 -148.5v-1143h-274z" />
<glyph unicode="&#xe0;" horiz-adv-x="1048" d="M82 203q0 61 25.5 113.5t65 89t96 67t111 49t119 32.5t109.5 20.5t92 11.5v139q0 37 -5 65t-20.5 60t-51 50t-88.5 18q-63 0 -107.5 -35.5t-44.5 -100.5q0 -64 63 -112l-178 -121q-42 42 -60 91.5t-18 88.5q0 115 100 178.5t255 63.5q88 0 158 -24.5t117.5 -84.5 t47.5 -149v-537l101 -158v-18h-269v92q-19 -17 -44.5 -33.5t-69.5 -38.5t-105.5 -35.5t-128.5 -13.5q-116 0 -193 58.5t-77 173.5zM285 207q0 -74 42.5 -115t118.5 -41q122 0 254 115v358q-63 -9 -113.5 -20t-109.5 -35t-98.5 -56.5t-66.5 -85.5t-27 -120zM307 1364v12h199 l162 -272h-31z" />
<glyph unicode="&#xe1;" horiz-adv-x="1048" d="M82 203q0 61 25.5 113.5t65 89t96 67t111 49t119 32.5t109.5 20.5t92 11.5v139q0 37 -5 65t-20.5 60t-51 50t-88.5 18q-63 0 -107.5 -35.5t-44.5 -100.5q0 -64 63 -112l-178 -121q-42 42 -60 91.5t-18 88.5q0 115 100 178.5t255 63.5q88 0 158 -24.5t117.5 -84.5 t47.5 -149v-537l101 -158v-18h-269v92q-19 -17 -44.5 -33.5t-69.5 -38.5t-105.5 -35.5t-128.5 -13.5q-116 0 -193 58.5t-77 173.5zM285 207q0 -74 42.5 -115t118.5 -41q122 0 254 115v358q-63 -9 -113.5 -20t-109.5 -35t-98.5 -56.5t-66.5 -85.5t-27 -120zM362 1104l162 272 h199v-12l-330 -260h-31z" />
<glyph unicode="&#xe2;" horiz-adv-x="1048" d="M82 203q0 61 25.5 113.5t65 89t96 67t111 49t119 32.5t109.5 20.5t92 11.5v139q0 37 -5 65t-20.5 60t-51 50t-88.5 18q-63 0 -107.5 -35.5t-44.5 -100.5q0 -64 63 -112l-178 -121q-42 42 -60 91.5t-18 88.5q0 115 100 178.5t255 63.5q88 0 158 -24.5t117.5 -84.5 t47.5 -149v-537l101 -158v-18h-269v92q-19 -17 -44.5 -33.5t-69.5 -38.5t-105.5 -35.5t-128.5 -13.5q-116 0 -193 58.5t-77 173.5zM285 207q0 -74 42.5 -115t118.5 -41q122 0 254 115v358q-63 -9 -113.5 -20t-109.5 -35t-98.5 -56.5t-66.5 -85.5t-27 -120zM295 1100v12 l227 262l228 -262v-12h-91l-135 121l-139 -121h-90z" />
<glyph unicode="&#xe3;" horiz-adv-x="1048" d="M82 203q0 61 25.5 113.5t65 89t96 67t111 49t119 32.5t109.5 20.5t92 11.5v139q0 37 -5 65t-20.5 60t-51 50t-88.5 18q-63 0 -107.5 -35.5t-44.5 -100.5q0 -64 63 -112l-178 -121q-42 42 -60 91.5t-18 88.5q0 115 100 178.5t255 63.5q88 0 158 -24.5t117.5 -84.5 t47.5 -149v-537l101 -158v-18h-269v92q-19 -17 -44.5 -33.5t-69.5 -38.5t-105.5 -35.5t-128.5 -13.5q-116 0 -193 58.5t-77 173.5zM283 1184q13 52 52.5 79t86.5 27q44 0 101 -26.5t93 -26.5q32 0 59.5 14t33.5 35l57 -29q-36 -104 -150 -104q-36 0 -97 27.5t-97 27.5 q-31 0 -54 -13.5t-30 -37.5zM285 207q0 -74 42.5 -115t118.5 -41q122 0 254 115v358q-63 -9 -113.5 -20t-109.5 -35t-98.5 -56.5t-66.5 -85.5t-27 -120z" />
<glyph unicode="&#xe4;" horiz-adv-x="1048" d="M82 203q0 61 25.5 113.5t65 89t96 67t111 49t119 32.5t109.5 20.5t92 11.5v139q0 37 -5 65t-20.5 60t-51 50t-88.5 18q-63 0 -107.5 -35.5t-44.5 -100.5q0 -64 63 -112l-178 -121q-42 42 -60 91.5t-18 88.5q0 115 100 178.5t255 63.5q88 0 158 -24.5t117.5 -84.5 t47.5 -149v-537l101 -158v-18h-269v92q-19 -17 -44.5 -33.5t-69.5 -38.5t-105.5 -35.5t-128.5 -13.5q-116 0 -193 58.5t-77 173.5zM258 1229l113 117l112 -117l-112 -115zM285 207q0 -74 42.5 -115t118.5 -41q122 0 254 115v358q-63 -9 -113.5 -20t-109.5 -35t-98.5 -56.5 t-66.5 -85.5t-27 -120zM563 1229l113 117l112 -117l-112 -115z" />
<glyph unicode="&#xe5;" horiz-adv-x="1048" d="M82 203q0 61 25.5 113.5t65 89t96 67t111 49t119 32.5t109.5 20.5t92 11.5v139q0 37 -5 65t-20.5 60t-51 50t-88.5 18q-63 0 -107.5 -35.5t-44.5 -100.5q0 -64 63 -112l-178 -121q-42 42 -60 91.5t-18 88.5q0 115 100 178.5t255 63.5q88 0 158 -24.5t117.5 -84.5 t47.5 -149v-537l101 -158v-18h-269v92q-19 -17 -44.5 -33.5t-69.5 -38.5t-105.5 -35.5t-128.5 -13.5q-116 0 -193 58.5t-77 173.5zM285 207q0 -74 42.5 -115t118.5 -41q122 0 254 115v358q-63 -9 -113.5 -20t-109.5 -35t-98.5 -56.5t-66.5 -85.5t-27 -120zM389 1229 q0 55 39.5 95t95.5 40t95.5 -40t39.5 -95t-39.5 -95t-95.5 -40t-95.5 40t-39.5 95zM459 1229q0 -28 18.5 -47t46.5 -19t47 19t19 47t-19 46.5t-47 18.5t-46.5 -18.5t-18.5 -46.5z" />
<glyph unicode="&#xe6;" horiz-adv-x="1662" d="M82 203q0 61 25.5 113.5t65 89t96 67t111 49t119 32.5t109.5 20.5t92 11.5v139q0 29 -2.5 52.5t-12.5 52t-27 47.5t-48.5 32t-74.5 13q-63 0 -107.5 -36.5t-44.5 -103.5q0 -64 63 -112l-178 -121q-42 42 -60 91.5t-18 88.5q0 115 100 178.5t255 63.5q97 0 175 -32.5 t116 -98.5q57 68 143 99.5t172 31.5q208 1 322 -110t114 -312v-33h-719q2 -63 16 -124t42.5 -118t69.5 -99.5t101 -68.5t132 -26q83 0 162 39.5t129 124.5l59 -25q-69 -158 -216 -217q-80 -31 -175 -31q-282 0 -406 193q-53 -60 -103 -98.5t-128.5 -66.5t-173.5 -28 q-133 0 -214 58t-81 174zM285 207q0 -77 41.5 -118.5t119.5 -41.5q84 0 164 45.5t142 126.5q-52 114 -52 264v41q-63 -9 -113.5 -20t-109.5 -35t-98.5 -56.5t-66.5 -85.5t-27 -120zM868 565l537 27q-1 90 -27.5 158t-67 104t-82.5 53t-83 17q-128 0 -201 -100.5t-76 -258.5z " />
<glyph unicode="&#xe7;" horiz-adv-x="1060" d="M90 477q0 218 145 356t375 138q301 0 410 -228l-184 -69q0 117 -63 180.5t-173 63.5q-133 0 -223 -113.5t-90 -286.5q0 -195 104 -313.5t258 -118.5q203 0 326 172l57 -27q-56 -128 -162.5 -194t-257.5 -66h-14l-45 -65q172 -41 172 -156q0 -147 -213 -147q-46 0 -88 10 l2 35q24 -6 66 -6q56 0 84 21t28 69q0 29 -20 51t-52 32.5t-54 15.5t-44 7v17l103 120q-198 24 -322.5 159t-124.5 343z" />
<glyph unicode="&#xe8;" horiz-adv-x="1079" d="M90 483q0 58 12.5 118.5t46 128t85.5 119t139 86.5t198 36q206 0 319.5 -110.5t113.5 -311.5v-33h-719q2 -64 16 -124.5t43 -117.5t69.5 -99.5t100 -68.5t131.5 -26q83 0 162 39.5t129 124.5l59 -25q-69 -158 -216 -217q-79 -31 -175 -31q-231 0 -372.5 142t-141.5 370z M285 569l536 31q-1 144 -75 231t-181 87q-128 0 -200 -97t-80 -252zM340 1364v12h199l161 -272h-30z" />
<glyph unicode="&#xe9;" horiz-adv-x="1079" d="M90 483q0 58 12.5 118.5t46 128t85.5 119t139 86.5t198 36q206 0 319.5 -110.5t113.5 -311.5v-33h-719q2 -64 16 -124.5t43 -117.5t69.5 -99.5t100 -68.5t131.5 -26q83 0 162 39.5t129 124.5l59 -25q-69 -158 -216 -217q-79 -31 -175 -31q-231 0 -372.5 142t-141.5 370z M285 569l536 31q-1 144 -75 231t-181 87q-128 0 -200 -97t-80 -252zM395 1104l162 272h199v-12l-330 -260h-31z" />
<glyph unicode="&#xea;" horiz-adv-x="1079" d="M90 483q0 58 12.5 118.5t46 128t85.5 119t139 86.5t198 36q206 0 319.5 -110.5t113.5 -311.5v-33h-719q2 -64 16 -124.5t43 -117.5t69.5 -99.5t100 -68.5t131.5 -26q83 0 162 39.5t129 124.5l59 -25q-69 -158 -216 -217q-79 -31 -175 -31q-231 0 -372.5 142t-141.5 370z M285 569l536 31q-1 144 -75 231t-181 87q-128 0 -200 -97t-80 -252zM328 1100v12l227 262l227 -262v-12h-90l-135 121l-139 -121h-90z" />
<glyph unicode="&#xeb;" horiz-adv-x="1079" d="M90 483q0 58 12.5 118.5t46 128t85.5 119t139 86.5t198 36q206 0 319.5 -110.5t113.5 -311.5v-33h-719q2 -64 16 -124.5t43 -117.5t69.5 -99.5t100 -68.5t131.5 -26q83 0 162 39.5t129 124.5l59 -25q-69 -158 -216 -217q-79 -31 -175 -31q-231 0 -372.5 142t-141.5 370z M285 569l536 31q-1 144 -75 231t-181 87q-128 0 -200 -97t-80 -252zM291 1229l112 117l113 -117l-113 -115zM596 1229l113 117l112 -117l-112 -115z" />
<glyph unicode="&#xec;" horiz-adv-x="540" d="M53 1364v12h199l162 -272h-31zM94 0v18l105 158v410q0 109 -25.5 169.5t-77.5 94.5l223 121h48v-795l102 -158v-18h-375z" />
<glyph unicode="&#xed;" horiz-adv-x="540" d="M94 0v18l105 158v410q0 109 -25.5 169.5t-77.5 94.5l223 121h48v-795l102 -158v-18h-375zM109 1104l161 272h199v-12l-330 -260h-30z" />
<glyph unicode="&#xee;" horiz-adv-x="540" d="M41 1100v12l227 262l228 -262v-12h-90l-136 121l-139 -121h-90zM94 0v18l105 158v410q0 109 -25.5 169.5t-77.5 94.5l223 121h48v-795l102 -158v-18h-375z" />
<glyph unicode="&#xef;" horiz-adv-x="540" d="M4 1229l113 117l112 -117l-112 -115zM94 0v18l105 158v410q0 109 -25.5 169.5t-77.5 94.5l223 121h48v-795l102 -158v-18h-375zM309 1229l113 117l113 -117l-113 -115z" />
<glyph unicode="&#xf0;" horiz-adv-x="1130" d="M78 471q0 118 42.5 215t111.5 158t153 94t172 33q203 0 299 -156q-59 330 -262 512l-117 -119l-43 43l111 115q-63 48 -137 78l36 90q102 -40 177 -90l100 102l45 -45l-94 -96q176 -139 272 -359t96 -479q0 -284 -124 -440t-347 -156q-101 0 -189.5 33t-156 95 t-106.5 158t-39 214zM258 502q0 -194 97.5 -320.5t232.5 -126.5q120 0 194 117t74 313q0 194 -81.5 306t-217.5 112q-130 0 -214.5 -110t-84.5 -291z" />
<glyph unicode="&#xf1;" horiz-adv-x="1198" d="M111 860l225 98h45v-145q48 76 123.5 117t169.5 41q41 0 83.5 -9t90.5 -33t84.5 -61.5t61 -101t24.5 -143.5v-447l98 -158v-18h-364v18l98 158v422q0 132 -56 205.5t-171 73.5q-108 0 -175 -73t-67 -163v-465l98 -158v-18h-364v18l98 158v422q0 109 -25 169.5t-77 92.5z M354 1184q13 52 53 79t87 27q44 0 101 -26.5t93 -26.5q32 0 59 14t33 35l58 -29q-36 -104 -150 -104q-36 0 -97 27.5t-97 27.5q-31 0 -54 -13.5t-30 -37.5z" />
<glyph unicode="&#xf2;" horiz-adv-x="1187" d="M82 471q0 118 44.5 215t117.5 158t163 94t185 33q96 0 187 -32.5t164.5 -92t118 -154t44.5 -209.5q0 -120 -43.5 -219.5t-114.5 -162t-159 -96.5t-181 -34q-108 0 -202.5 33t-167 95t-114.5 158t-42 214zM283 502q0 -212 95 -344.5t249 -132.5q128 0 203 116t75 312 q0 206 -90.5 335.5t-234.5 129.5q-136 0 -216.5 -112.5t-80.5 -303.5zM377 1364v12h198l162 -272h-30z" />
<glyph unicode="&#xf3;" horiz-adv-x="1187" d="M82 471q0 118 44.5 215t117.5 158t163 94t185 33q96 0 187 -32.5t164.5 -92t118 -154t44.5 -209.5q0 -120 -43.5 -219.5t-114.5 -162t-159 -96.5t-181 -34q-108 0 -202.5 33t-167 95t-114.5 158t-42 214zM283 502q0 -212 95 -344.5t249 -132.5q128 0 203 116t75 312 q0 206 -90.5 335.5t-234.5 129.5q-136 0 -216.5 -112.5t-80.5 -303.5zM432 1104l162 272h199v-12l-330 -260h-31z" />
<glyph unicode="&#xf4;" horiz-adv-x="1187" d="M82 471q0 118 44.5 215t117.5 158t163 94t185 33q96 0 187 -32.5t164.5 -92t118 -154t44.5 -209.5q0 -120 -43.5 -219.5t-114.5 -162t-159 -96.5t-181 -34q-108 0 -202.5 33t-167 95t-114.5 158t-42 214zM283 502q0 -212 95 -344.5t249 -132.5q128 0 203 116t75 312 q0 206 -90.5 335.5t-234.5 129.5q-136 0 -216.5 -112.5t-80.5 -303.5zM365 1100v12l227 262l227 -262v-12h-90l-135 121l-139 -121h-90z" />
<glyph unicode="&#xf5;" horiz-adv-x="1187" d="M82 471q0 118 44.5 215t117.5 158t163 94t185 33q96 0 187 -32.5t164.5 -92t118 -154t44.5 -209.5q0 -120 -43.5 -219.5t-114.5 -162t-159 -96.5t-181 -34q-108 0 -202.5 33t-167 95t-114.5 158t-42 214zM283 502q0 -212 95 -344.5t249 -132.5q128 0 203 116t75 312 q0 206 -90.5 335.5t-234.5 129.5q-136 0 -216.5 -112.5t-80.5 -303.5zM352 1184q13 52 53 79t87 27q44 0 101 -26.5t93 -26.5q32 0 59 14t33 35l58 -29q-36 -104 -150 -104q-36 0 -97 27.5t-97 27.5q-31 0 -54 -13.5t-30 -37.5z" />
<glyph unicode="&#xf6;" horiz-adv-x="1187" d="M82 471q0 118 44.5 215t117.5 158t163 94t185 33q96 0 187 -32.5t164.5 -92t118 -154t44.5 -209.5q0 -120 -43.5 -219.5t-114.5 -162t-159 -96.5t-181 -34q-108 0 -202.5 33t-167 95t-114.5 158t-42 214zM283 502q0 -212 95 -344.5t249 -132.5q128 0 203 116t75 312 q0 206 -90.5 335.5t-234.5 129.5q-136 0 -216.5 -112.5t-80.5 -303.5zM328 1229l112 117l113 -117l-113 -115zM633 1229l112 117l113 -117l-113 -115z" />
<glyph unicode="&#xf7;" horiz-adv-x="823" d="M152 506v108h520v-108h-520zM276 319l121 125l121 -125l-121 -122zM276 809l121 125l121 -125l-121 -123z" />
<glyph unicode="&#xf8;" horiz-adv-x="1187" d="M82 471q0 118 44.5 215t117.5 158t163 94t185 33q144 0 268 -68l84 113h119l-123 -166q166 -139 166 -367q0 -120 -43.5 -219.5t-114.5 -162t-159 -96.5t-181 -34q-152 0 -274 64l-78 -107h-115l115 156q-174 138 -174 387zM283 502q0 -172 63 -295l449 606 q-85 105 -215 105q-136 0 -216.5 -112.5t-80.5 -303.5zM403 127q88 -102 224 -102q128 0 203 116t75 312q0 158 -55 274z" />
<glyph unicode="&#xf9;" horiz-adv-x="1134" d="M82 877l194 98h48v-653q0 -121 54 -193t165 -72q68 0 118.5 22t78.5 60t41.5 83t13.5 97v295q0 113 -19.5 172.5t-66.5 90.5l204 98h45v-799l82 -153v-23h-241v102q-40 -63 -98.5 -98t-163.5 -35q-53 0 -102 9t-100.5 33.5t-89 62t-61.5 100.5t-24 143v297 q0 120 -15.5 177.5t-62.5 85.5zM309 1319v12h205l162 -272h-31z" />
<glyph unicode="&#xfa;" horiz-adv-x="1138" d="M82 858l199 98h47v-634q0 -119 53 -191t162 -72q68 0 118.5 22t78.5 60t41.5 82.5t13.5 95.5v277q0 113 -19.5 172t-66.5 90l209 98h45v-780l81 -153v-23h-245v102q-41 -62 -101 -96.5t-172 -34.5q-49 0 -96.5 9t-97.5 33.5t-87 62t-61 100t-24 141.5v279 q0 120 -15.5 177t-62.5 85zM381 1104l162 272h198v-12l-329 -260h-31z" />
<glyph unicode="&#xfb;" horiz-adv-x="1138" d="M82 858l199 98h47v-634q0 -119 53 -191t162 -72q68 0 118.5 22t78.5 60t41.5 82.5t13.5 95.5v277q0 113 -19.5 172t-66.5 90l209 98h45v-780l81 -153v-23h-245v102q-41 -62 -101 -96.5t-172 -34.5q-49 0 -96.5 9t-97.5 33.5t-87 62t-61 100t-24 141.5v279 q0 120 -15.5 177t-62.5 85zM313 1100v12l228 262l227 -262v-12h-90l-135 121l-140 -121h-90z" />
<glyph unicode="&#xfc;" horiz-adv-x="1138" d="M82 858l199 98h47v-634q0 -119 53 -191t162 -72q68 0 118.5 22t78.5 60t41.5 82.5t13.5 95.5v277q0 113 -19.5 172t-66.5 90l209 98h45v-780l81 -153v-23h-245v102q-41 -62 -101 -96.5t-172 -34.5q-49 0 -96.5 9t-97.5 33.5t-87 62t-61 100t-24 141.5v279 q0 120 -15.5 177t-62.5 85zM276 1229l113 117l113 -117l-113 -115zM582 1229l112 117l113 -117l-113 -115z" />
<glyph unicode="&#xfd;" horiz-adv-x="1019" d="M16 920v22h369v-18l-86 -144l299 -579l240 581l-95 140v20h265v-22l-68 -134l-442 -1069l73 -127v-20h-264v22l88 125l115 283zM387 1104l162 272h199v-12l-330 -260h-31z" />
<glyph unicode="&#xfe;" horiz-adv-x="1185" d="M74 1384l225 121h33v-635q60 50 123 74q88 31 186 31q110 0 189 -38.5t147 -119.5q119 -140 119 -350q0 -214 -115 -346q-67 -80 -148.5 -118t-191.5 -38t-197 37q-68 30 -112 74v-232l90 -153v-23h-330v23l88 153v1278q0 106 -26.5 167t-79.5 95zM332 156 q29 -32 68.5 -59.5t66.5 -37.5q73 -31 160 -22q175 19 252 153q63 110 43 306q-8 76 -36.5 144t-75.5 120.5t-117.5 79.5t-153.5 18q-92 -9 -154 -51q-37 -27 -53 -51v-600z" />
<glyph unicode="&#xff;" horiz-adv-x="1019" d="M16 920v22h369v-18l-86 -144l299 -579l240 581l-95 140v20h265v-22l-68 -134l-442 -1069l73 -127v-20h-264v22l88 125l115 283zM332 1229l112 117l113 -117l-113 -115zM637 1229l113 117l112 -117l-112 -115z" />
<glyph unicode="&#x100;" horiz-adv-x="1419" d="M25 0v18l135 172l448 1121l-61 151l188 56l533 -1328l114 -172v-18h-413v18l100 172l-145 353h-529l-139 -353l129 -172v-18h-360zM422 610h475l-244 590zM483 1735v69h451v-69h-451z" />
<glyph unicode="&#x101;" horiz-adv-x="1048" d="M82 203q0 61 25.5 113.5t65 89t96 67t111 49t119 32.5t109.5 20.5t92 11.5v139q0 37 -5 65t-20.5 60t-51 50t-88.5 18q-63 0 -107.5 -35.5t-44.5 -100.5q0 -64 63 -112l-178 -121q-42 42 -60 91.5t-18 88.5q0 115 100 178.5t255 63.5q88 0 158 -24.5t117.5 -84.5 t47.5 -149v-537l101 -158v-18h-269v92q-19 -17 -44.5 -33.5t-69.5 -38.5t-105.5 -35.5t-128.5 -13.5q-116 0 -193 58.5t-77 173.5zM285 207q0 -74 42.5 -115t118.5 -41q122 0 254 115v358q-63 -9 -113.5 -20t-109.5 -35t-98.5 -56.5t-66.5 -85.5t-27 -120zM297 1171v70h451 v-70h-451z" />
<glyph unicode="&#x102;" horiz-adv-x="1419" d="M25 0v18l135 172l448 1121l-61 151l188 56l533 -1328l114 -172v-18h-413v18l100 172l-145 353h-529l-139 -353l129 -172v-18h-360zM422 610h475l-244 590zM487 1898h86q0 -59 38.5 -96t99.5 -37t99 37t38 96h86q0 -98 -64 -164.5t-159 -66.5t-159.5 66.5t-64.5 164.5z " />
<glyph unicode="&#x103;" horiz-adv-x="1048" d="M82 203q0 61 25.5 113.5t65 89t96 67t111 49t119 32.5t109.5 20.5t92 11.5v139q0 37 -5 65t-20.5 60t-51 50t-88.5 18q-63 0 -107.5 -35.5t-44.5 -100.5q0 -64 63 -112l-178 -121q-42 42 -60 91.5t-18 88.5q0 115 100 178.5t255 63.5q88 0 158 -24.5t117.5 -84.5 t47.5 -149v-537l101 -158v-18h-269v92q-19 -17 -44.5 -33.5t-69.5 -38.5t-105.5 -35.5t-128.5 -13.5q-116 0 -193 58.5t-77 173.5zM285 207q0 -74 42.5 -115t118.5 -41q122 0 254 115v358q-63 -9 -113.5 -20t-109.5 -35t-98.5 -56.5t-66.5 -85.5t-27 -120zM301 1335h86 q0 -59 38 -96t99 -37t99.5 37t38.5 96h86q0 -98 -64.5 -164.5t-159.5 -66.5t-159 66.5t-64 164.5z" />
<glyph unicode="&#x104;" horiz-adv-x="1419" d="M25 0v18l135 172l448 1121l-61 151l188 56l533 -1328l114 -172v-18h-186q-125 -89 -125 -211q0 -38 20.5 -69t67.5 -31q69 0 137 80l52 -43q-43 -54 -99 -82.5t-104 -28.5q-89 0 -134.5 42.5t-45.5 115.5q0 61 44 121t107 106h-147v18l100 172l-145 353h-529l-139 -353 l129 -172v-18h-360zM422 610h475l-244 590z" />
<glyph unicode="&#x105;" horiz-adv-x="1048" d="M82 203q0 61 25.5 113.5t65 89t96 67t111 49t119 32.5t109.5 20.5t92 11.5v139q0 37 -5 65t-20.5 60t-51 50t-88.5 18q-63 0 -107.5 -35.5t-44.5 -100.5q0 -64 63 -112l-178 -121q-42 42 -60 91.5t-18 88.5q0 115 100 178.5t255 63.5q88 0 158 -24.5t117.5 -84.5 t47.5 -149v-537l101 -158v-18h-205q-125 -89 -125 -211q0 -38 20.5 -69t67.5 -31q69 0 137 80l51 -43q-43 -54 -98.5 -82.5t-103.5 -28.5q-90 0 -135.5 42.5t-45.5 115.5q0 64 51 128.5t117 110.5v80q-19 -17 -44.5 -33.5t-69.5 -38.5t-105.5 -35.5t-128.5 -13.5 q-116 0 -193 58.5t-77 173.5zM285 207q0 -74 42.5 -115t118.5 -41q122 0 254 115v358q-63 -9 -113.5 -20t-109.5 -35t-98.5 -56.5t-66.5 -85.5t-27 -120z" />
<glyph unicode="&#x106;" horiz-adv-x="1556" d="M90 752q0 232 95 410.5t264.5 275t386.5 96.5q65 0 135 -11.5t152 -42t152 -76t131 -121.5t93 -171l-188 -172q-5 52 -20 109t-41.5 119t-67.5 117t-92.5 99.5t-122.5 70.5t-152 26q-244 0 -389 -174.5t-145 -470.5q0 -221 74.5 -392.5t209.5 -266.5t309 -95 q180 0 308 90t170 223h57v-395h-29l-120 88q-150 -117 -416 -117q-220 0 -392 98.5t-267 276.5t-95 406zM616 1667l162 272h199v-12l-330 -260h-31z" />
<glyph unicode="&#x107;" horiz-adv-x="1060" d="M90 477q0 218 145 356t375 138q301 0 410 -228l-184 -69q0 117 -63 180.5t-173 63.5q-133 0 -223 -113.5t-90 -286.5q0 -195 104 -313.5t258 -118.5q203 0 326 172l57 -27q-56 -128 -162.5 -194t-257.5 -66q-227 0 -374.5 139t-147.5 367zM410 1104l161 272h199v-12 l-330 -260h-30z" />
<glyph unicode="&#x108;" horiz-adv-x="1556" d="M90 752q0 232 95 410.5t264.5 275t386.5 96.5q65 0 135 -11.5t152 -42t152 -76t131 -121.5t93 -171l-188 -172q-5 52 -20 109t-41.5 119t-67.5 117t-92.5 99.5t-122.5 70.5t-152 26q-244 0 -389 -174.5t-145 -470.5q0 -221 74.5 -392.5t209.5 -266.5t309 -95 q180 0 308 90t170 223h57v-395h-29l-120 88q-150 -117 -416 -117q-220 0 -392 98.5t-267 276.5t-95 406zM549 1663v12l227 262l228 -262v-12h-91l-135 121l-139 -121h-90z" />
<glyph unicode="&#x109;" horiz-adv-x="1060" d="M90 477q0 218 145 356t375 138q301 0 410 -228l-184 -69q0 117 -63 180.5t-173 63.5q-133 0 -223 -113.5t-90 -286.5q0 -195 104 -313.5t258 -118.5q203 0 326 172l57 -27q-56 -128 -162.5 -194t-257.5 -66q-227 0 -374.5 139t-147.5 367zM342 1100v12l227 262l228 -262 v-12h-90l-136 121l-139 -121h-90z" />
<glyph unicode="&#x10a;" horiz-adv-x="1556" d="M90 752q0 232 95 410.5t264.5 275t386.5 96.5q65 0 135 -11.5t152 -42t152 -76t131 -121.5t93 -171l-188 -172q-5 52 -20 109t-41.5 119t-67.5 117t-92.5 99.5t-122.5 70.5t-152 26q-244 0 -389 -174.5t-145 -470.5q0 -221 74.5 -392.5t209.5 -266.5t309 -95 q180 0 308 90t170 223h57v-395h-29l-120 88q-150 -117 -416 -117q-220 0 -392 98.5t-267 276.5t-95 406zM664 1792q0 47 33.5 81t80.5 34t81 -34t34 -81t-34 -81t-81 -34t-80.5 34t-33.5 81z" />
<glyph unicode="&#x10b;" horiz-adv-x="1060" d="M90 477q0 218 145 356t375 138q301 0 410 -228l-184 -69q0 117 -63 180.5t-173 63.5q-133 0 -223 -113.5t-90 -286.5q0 -195 104 -313.5t258 -118.5q203 0 326 172l57 -27q-56 -128 -162.5 -194t-257.5 -66q-227 0 -374.5 139t-147.5 367zM457 1229q0 47 33.5 80.5 t80.5 33.5t81 -33.5t34 -80.5t-34 -81t-81 -34t-80.5 34t-33.5 81z" />
<glyph unicode="&#x10c;" horiz-adv-x="1556" d="M90 752q0 232 95 410.5t264.5 275t386.5 96.5q65 0 135 -11.5t152 -42t152 -76t131 -121.5t93 -171l-188 -172q-5 52 -20 109t-41.5 119t-67.5 117t-92.5 99.5t-122.5 70.5t-152 26q-244 0 -389 -174.5t-145 -470.5q0 -221 74.5 -392.5t209.5 -266.5t309 -95 q180 0 308 90t170 223h57v-395h-29l-120 88q-150 -117 -416 -117q-220 0 -392 98.5t-267 276.5t-95 406zM549 1905v12h90l139 -121l135 121h91v-12l-228 -263z" />
<glyph unicode="&#x10d;" horiz-adv-x="1060" d="M90 477q0 218 145 356t375 138q301 0 410 -228l-184 -69q0 117 -63 180.5t-173 63.5q-133 0 -223 -113.5t-90 -286.5q0 -195 104 -313.5t258 -118.5q203 0 326 172l57 -27q-56 -128 -162.5 -194t-257.5 -66q-227 0 -374.5 139t-147.5 367zM342 1341v13h90l139 -121 l136 121h90v-13l-228 -262z" />
<glyph unicode="&#x10e;" horiz-adv-x="1474" d="M86 1485v20h512q381 0 583.5 -206t202.5 -582q0 -158 -37.5 -286.5t-99.5 -212.5t-144.5 -141t-168.5 -81.5t-176 -24.5q-114 0 -200 38.5t-126 107.5v-117h-297v18l119 172v1127zM438 203q43 -71 120 -109.5t167 -38.5q77 0 142 19.5t124 67.5t100.5 122t66 189.5 t24.5 263.5q0 120 -23.5 228.5t-71.5 200t-116.5 157.5t-164 103.5t-208.5 37.5h-160v-1241zM508 1905v12h90l139 -121l135 121h91v-12l-228 -263z" />
<glyph unicode="&#x10f;" horiz-adv-x="1198" d="M82 477q0 214 129.5 354t351.5 140q162 0 268 -86v258q0 177 -100 241l225 121h41v-1329l115 -156v-20h-281v76q-105 -105 -294 -105q-134 0 -238.5 68.5t-160.5 183.5t-56 254zM178 1341v13h90l140 -121l135 121h90v-13l-227 -262zM258 524q0 -203 93 -321.5t253 -118.5 t227 106v601q-43 44 -112.5 74t-147.5 30q-146 0 -229.5 -100t-83.5 -271z" />
<glyph unicode="&#x110;" horiz-adv-x="1474" d="M86 1485v20h512q381 0 583.5 -206t202.5 -582q0 -158 -37.5 -286.5t-99.5 -212.5t-144.5 -141t-168.5 -81.5t-176 -24.5q-114 0 -200 38.5t-126 107.5v-117h-297v18l119 172v469h-117v66h117v592zM438 203q43 -71 120 -109.5t167 -38.5q77 0 142 19.5t124 67.5t100.5 122 t66 189.5t24.5 263.5q0 120 -23.5 228.5t-71.5 200t-116.5 157.5t-164 103.5t-208.5 37.5h-160v-719h158v-66h-158v-456z" />
<glyph unicode="&#x111;" horiz-adv-x="1198" d="M82 477q0 214 129.5 354t351.5 140q162 0 268 -86v256h-208v65h204q-13 124 -96 178l225 121h41v-299h84v-65h-84v-965l115 -156v-20h-281v76q-105 -105 -294 -105q-134 0 -238.5 68.5t-160.5 183.5t-56 254zM258 524q0 -203 93 -321.5t253 -118.5t227 106v601 q-43 44 -112.5 74t-147.5 30q-146 0 -229.5 -100t-83.5 -271z" />
<glyph unicode="&#x112;" horiz-adv-x="1339" d="M70 1487v18h1020l73 -329h-33l-256 268h-462v-580h338l147 105h21v-312h-21l-147 142h-338v-733h354q56 0 105 16.5t81.5 41t58.5 57.5t40 62t22 58l184 -199q-83 -67 -166.5 -87t-261.5 -15h-731v18l129 170v1127zM393 1735v69h451v-69h-451z" />
<glyph unicode="&#x113;" horiz-adv-x="1079" d="M90 483q0 58 12.5 118.5t46 128t85.5 119t139 86.5t198 36q206 0 319.5 -110.5t113.5 -311.5v-33h-719q2 -64 16 -124.5t43 -117.5t69.5 -99.5t100 -68.5t131.5 -26q83 0 162 39.5t129 124.5l59 -25q-69 -158 -216 -217q-79 -31 -175 -31q-231 0 -372.5 142t-141.5 370z M285 569l536 31q-1 144 -75 231t-181 87q-128 0 -200 -97t-80 -252zM330 1171v70h450v-70h-450z" />
<glyph unicode="&#x115;" horiz-adv-x="1079" d="M90 483q0 58 12.5 118.5t46 128t85.5 119t139 86.5t198 36q206 0 319.5 -110.5t113.5 -311.5v-33h-719q2 -64 16 -124.5t43 -117.5t69.5 -99.5t100 -68.5t131.5 -26q83 0 162 39.5t129 124.5l59 -25q-69 -158 -216 -217q-79 -31 -175 -31q-231 0 -372.5 142t-141.5 370z M285 569l536 31q-1 144 -75 231t-181 87q-128 0 -200 -97t-80 -252zM334 1335h86q0 -59 38 -96t99 -37t99 37t38 96h86q0 -98 -64 -164.5t-159 -66.5t-159 66.5t-64 164.5z" />
<glyph unicode="&#x116;" horiz-adv-x="1339" d="M70 1487v18h1020l73 -329h-33l-256 268h-462v-580h338l147 105h21v-312h-21l-147 142h-338v-733h354q56 0 105 16.5t81.5 41t58.5 57.5t40 62t22 58l184 -199q-83 -67 -166.5 -87t-261.5 -15h-731v18l129 170v1127zM506 1792q0 47 34 81t81 34t80.5 -34t33.5 -81 t-33.5 -81t-80.5 -34t-81 34t-34 81z" />
<glyph unicode="&#x117;" horiz-adv-x="1079" d="M90 483q0 58 12.5 118.5t46 128t85.5 119t139 86.5t198 36q206 0 319.5 -110.5t113.5 -311.5v-33h-719q2 -64 16 -124.5t43 -117.5t69.5 -99.5t100 -68.5t131.5 -26q83 0 162 39.5t129 124.5l59 -25q-69 -158 -216 -217q-79 -31 -175 -31q-231 0 -372.5 142t-141.5 370z M285 569l536 31q-1 144 -75 231t-181 87q-128 0 -200 -97t-80 -252zM442 1229q0 47 34 80.5t81 33.5t81 -33.5t34 -80.5t-34 -81t-81 -34t-81 34t-34 81z" />
<glyph unicode="&#x118;" horiz-adv-x="1339" d="M70 1487v18h1020l73 -329h-33l-256 268h-462v-580h338l147 105h21v-312h-21l-147 142h-338v-733h354q56 0 105 16.5t81.5 41t58.5 57.5t40 62t22 58l184 -199q-83 -67 -166.5 -87t-261.5 -15h-96q-125 -89 -125 -211q0 -38 20.5 -69t67.5 -31q70 0 138 80l51 -43 q-43 -54 -99 -82.5t-104 -28.5q-89 0 -134.5 42.5t-45.5 115.5q0 61 44 121t107 106h-555v18l129 170v1127z" />
<glyph unicode="&#x119;" horiz-adv-x="1079" d="M90 483q0 58 12.5 118.5t46 128t85.5 119t139 86.5t198 36q206 0 319.5 -110.5t113.5 -311.5v-33h-719q2 -64 16 -124.5t43 -117.5t69.5 -99.5t100 -68.5t131.5 -26q83 0 162 39.5t129 124.5l59 -25q-69 -158 -216 -217q-79 -31 -175 -31h-33q-90 -79 -90 -182 q0 -38 20.5 -69t67.5 -31q70 0 138 80l51 -43q-43 -54 -99 -82.5t-104 -28.5q-89 0 -134.5 42.5t-45.5 115.5q0 102 125 207q-188 31 -299 166.5t-111 336.5zM285 569l536 31q-1 144 -75 231t-181 87q-128 0 -200 -97t-80 -252z" />
<glyph unicode="&#x11a;" horiz-adv-x="1339" d="M70 1487v18h1020l73 -329h-33l-256 268h-462v-580h338l147 105h21v-312h-21l-147 142h-338v-733h354q56 0 105 16.5t81.5 41t58.5 57.5t40 62t22 58l184 -199q-83 -67 -166.5 -87t-261.5 -15h-731v18l129 170v1127zM391 1905v12h90l140 -121l135 121h90v-12l-228 -263z " />
<glyph unicode="&#x11b;" horiz-adv-x="1079" d="M90 483q0 58 12.5 118.5t46 128t85.5 119t139 86.5t198 36q206 0 319.5 -110.5t113.5 -311.5v-33h-719q2 -64 16 -124.5t43 -117.5t69.5 -99.5t100 -68.5t131.5 -26q83 0 162 39.5t129 124.5l59 -25q-69 -158 -216 -217q-79 -31 -175 -31q-231 0 -372.5 142t-141.5 370z M285 569l536 31q-1 144 -75 231t-181 87q-128 0 -200 -97t-80 -252zM328 1341v13h90l139 -121l135 121h90v-13l-227 -262z" />
<glyph unicode="&#x11c;" horiz-adv-x="1601" d="M90 770q0 168 55.5 310.5t153 242t236.5 155.5t301 56q65 0 135 -11.5t152 -42t152 -76t131 -121.5t93 -171l-188 -172q-5 52 -20 108.5t-42 119t-69 117.5t-95.5 99.5t-127 70.5t-158.5 26q-238 0 -378 -174.5t-140 -470.5q0 -216 75 -385t208 -262t300 -93 q117 0 208.5 34.5t146.5 94t83.5 134t28.5 159.5l-305 166v23h451v-707h-29l-109 143q-181 -172 -487 -172q-159 0 -299.5 59t-242.5 163t-161 254t-59 323zM590 1663v12l227 262l227 -262v-12h-90l-135 121l-139 -121h-90z" />
<glyph unicode="&#x11d;" horiz-adv-x="1140" d="M90 -303l154 305q-101 41 -101 139q0 64 53.5 110t143.5 58q-100 42 -157.5 126t-57.5 194q0 152 111 247t290 95q196 0 308 -115l192 100h35v-219l-172 45q35 -68 35 -151q0 -160 -110.5 -258.5t-287.5 -98.5q-70 0 -135 19l-82 -158q69 0 120 -1.5t114.5 -5t110 -9.5 t99 -17t89 -26t72 -36.5t57 -49t34.5 -64t13 -80.5q0 -71 -29.5 -126t-74.5 -88t-107 -54t-119.5 -29t-118.5 -8q-295 0 -479 156zM258 -145q0 -121 83 -186.5t239 -65.5q46 0 90 7t94.5 24.5t81.5 56t31 94.5q0 57 -30 94.5t-77 53.5t-113 24.5t-127.5 9.5t-132.5 7 t-118 18q-21 -67 -21 -137zM301 672q0 -146 70 -243t176 -97q91 0 146 68.5t55 181.5q0 151 -66.5 243.5t-173.5 92.5q-92 0 -149.5 -68t-57.5 -178zM301 1100v12l227 262l228 -262v-12h-90l-136 121l-139 -121h-90z" />
<glyph unicode="&#x11e;" horiz-adv-x="1601" d="M90 770q0 168 55.5 310.5t153 242t236.5 155.5t301 56q65 0 135 -11.5t152 -42t152 -76t131 -121.5t93 -171l-188 -172q-5 52 -20 108.5t-42 119t-69 117.5t-95.5 99.5t-127 70.5t-158.5 26q-238 0 -378 -174.5t-140 -470.5q0 -216 75 -385t208 -262t300 -93 q117 0 208.5 34.5t146.5 94t83.5 134t28.5 159.5l-305 166v23h451v-707h-29l-109 143q-181 -172 -487 -172q-159 0 -299.5 59t-242.5 163t-161 254t-59 323zM596 1898h86q0 -59 38 -96t99 -37t99 37t38 96h86q0 -98 -64 -164.5t-159 -66.5t-159 66.5t-64 164.5z" />
<glyph unicode="&#x11f;" horiz-adv-x="1140" d="M90 -303l154 305q-101 41 -101 139q0 64 53.5 110t143.5 58q-100 42 -157.5 126t-57.5 194q0 152 111 247t290 95q196 0 308 -115l192 100h35v-219l-172 45q35 -68 35 -151q0 -160 -110.5 -258.5t-287.5 -98.5q-70 0 -135 19l-82 -158q69 0 120 -1.5t114.5 -5t110 -9.5 t99 -17t89 -26t72 -36.5t57 -49t34.5 -64t13 -80.5q0 -71 -29.5 -126t-74.5 -88t-107 -54t-119.5 -29t-118.5 -8q-295 0 -479 156zM258 -145q0 -121 83 -186.5t239 -65.5q46 0 90 7t94.5 24.5t81.5 56t31 94.5q0 57 -30 94.5t-77 53.5t-113 24.5t-127.5 9.5t-132.5 7 t-118 18q-21 -67 -21 -137zM301 672q0 -146 70 -243t176 -97q91 0 146 68.5t55 181.5q0 151 -66.5 243.5t-173.5 92.5q-92 0 -149.5 -68t-57.5 -178zM307 1335h86q0 -59 38 -96t99 -37t99.5 37t38.5 96h86q0 -98 -64.5 -164.5t-159.5 -66.5t-159 66.5t-64 164.5z" />
<glyph unicode="&#x120;" horiz-adv-x="1601" d="M90 770q0 168 55.5 310.5t153 242t236.5 155.5t301 56q65 0 135 -11.5t152 -42t152 -76t131 -121.5t93 -171l-188 -172q-5 52 -20 108.5t-42 119t-69 117.5t-95.5 99.5t-127 70.5t-158.5 26q-238 0 -378 -174.5t-140 -470.5q0 -216 75 -385t208 -262t300 -93 q117 0 208.5 34.5t146.5 94t83.5 134t28.5 159.5l-305 166v23h451v-707h-29l-109 143q-181 -172 -487 -172q-159 0 -299.5 59t-242.5 163t-161 254t-59 323zM705 1792q0 47 33.5 81t80.5 34t81 -34t34 -81t-34 -81t-81 -34t-80.5 34t-33.5 81z" />
<glyph unicode="&#x121;" horiz-adv-x="1140" d="M90 -303l154 305q-101 41 -101 139q0 64 53.5 110t143.5 58q-100 42 -157.5 126t-57.5 194q0 152 111 247t290 95q196 0 308 -115l192 100h35v-219l-172 45q35 -68 35 -151q0 -160 -110.5 -258.5t-287.5 -98.5q-70 0 -135 19l-82 -158q69 0 120 -1.5t114.5 -5t110 -9.5 t99 -17t89 -26t72 -36.5t57 -49t34.5 -64t13 -80.5q0 -71 -29.5 -126t-74.5 -88t-107 -54t-119.5 -29t-118.5 -8q-295 0 -479 156zM258 -145q0 -121 83 -186.5t239 -65.5q46 0 90 7t94.5 24.5t81.5 56t31 94.5q0 57 -30 94.5t-77 53.5t-113 24.5t-127.5 9.5t-132.5 7 t-118 18q-21 -67 -21 -137zM301 672q0 -146 70 -243t176 -97q91 0 146 68.5t55 181.5q0 151 -66.5 243.5t-173.5 92.5q-92 0 -149.5 -68t-57.5 -178zM416 1229q0 47 33.5 80.5t80.5 33.5t81 -33.5t34 -80.5t-34 -81t-81 -34t-80.5 34t-33.5 81z" />
<glyph unicode="&#x122;" horiz-adv-x="1601" d="M90 770q0 168 55.5 310.5t153 242t236.5 155.5t301 56q65 0 135 -11.5t152 -42t152 -76t131 -121.5t93 -171l-188 -172q-5 52 -20 108.5t-42 119t-69 117.5t-95.5 99.5t-127 70.5t-158.5 26q-238 0 -378 -174.5t-140 -470.5q0 -216 75 -385t208 -262t300 -93 q117 0 208.5 34.5t146.5 94t83.5 134t28.5 159.5l-305 166v23h451v-707h-29l-109 143q-181 -172 -487 -172q-159 0 -299.5 59t-242.5 163t-161 254t-59 323zM682 -221l117 112l116 -112l-108 -348h-31q2 11 4 29t2 68t-7 93t-31 88.5t-62 69.5z" />
<glyph unicode="&#x123;" horiz-adv-x="1140" d="M90 -303l154 305q-101 41 -101 139q0 64 53.5 110t143.5 58q-100 42 -157.5 126t-57.5 194q0 152 111 247t290 95q196 0 308 -115l192 100h35v-219l-172 45q35 -68 35 -151q0 -160 -110.5 -258.5t-287.5 -98.5q-70 0 -135 19l-82 -158q69 0 120 -1.5t114.5 -5t110 -9.5 t99 -17t89 -26t72 -36.5t57 -49t34.5 -64t13 -80.5q0 -71 -29.5 -126t-74.5 -88t-107 -54t-119.5 -29t-118.5 -8q-295 0 -479 156zM258 -145q0 -121 83 -186.5t239 -65.5q46 0 90 7t94.5 24.5t81.5 56t31 94.5q0 57 -30 94.5t-77 53.5t-113 24.5t-127.5 9.5t-132.5 7 t-118 18q-21 -67 -21 -137zM301 672q0 -146 70 -243t176 -97q91 0 146 68.5t55 181.5q0 151 -66.5 243.5t-173.5 92.5q-92 0 -149.5 -68t-57.5 -178zM420 1214l108 349h31q-2 -11 -4 -29.5t-2 -68.5t7 -93t31 -88.5t62 -69.5l-116 -112z" />
<glyph unicode="&#x124;" horiz-adv-x="1540" d="M102 0v20l123 170v1131l-114 166v18h413v-18l-114 -166v-516h720v516l-114 166v18h414v-18l-115 -166v-1131l123 -170v-20h-430v20l122 170v549h-720v-549l122 -170v-20h-430zM541 1663v12l227 262l227 -262v-12h-90l-135 121l-139 -121h-90z" />
<glyph unicode="&#x125;" horiz-adv-x="1245" d="M119 1663v12l227 262l227 -262v-12h-90l-135 121l-139 -121h-90zM170 1417l225 121h45v-725q100 158 297 158q38 0 78.5 -9t86.5 -33t81 -61.5t58.5 -101t23.5 -143.5v-447l98 -158v-18h-364v18l98 158v422q0 132 -53 205.5t-162 73.5q-101 0 -171.5 -70.5t-70.5 -165.5 v-465l99 -158v-18h-365v18l98 158v977q0 110 -25 170t-77 94z" />
<glyph unicode="&#x126;" horiz-adv-x="1540" d="M102 0v20l123 170v867h-123v65h123v199l-114 166v18h413v-18l-114 -166v-199h720v199l-114 166v18h414v-18l-115 -166v-199h125v-65h-125v-867l123 -170v-20h-430v20l122 170v549h-720v-549l122 -170v-20h-430zM410 805h720v252h-720v-252z" />
<glyph unicode="&#x127;" horiz-adv-x="1177" d="M102 1417l226 121h45v-725q100 158 297 158q38 0 78.5 -9t86 -33t80.5 -61.5t58.5 -101t23.5 -143.5v-447l99 -158v-18h-365v18l98 158v262h-456v-262l98 -158v-18h-365v18l99 158v977q0 109 -25.5 169.5t-77.5 94.5zM373 504h456v94q0 132 -53 205.5t-162 73.5 q-101 0 -171 -70.5t-70 -165.5v-137z" />
<glyph unicode="&#x128;" horiz-adv-x="641" d="M80 1747q13 52 52.5 79t86.5 27q45 0 102 -26.5t93 -26.5q32 0 59 14t33 35l57 -28q-36 -105 -149 -105q-36 0 -97.5 28t-97.5 28q-31 0 -54 -14t-30 -38zM115 0v20l114 170v1131l-79 164v20h342v-20l-78 -164v-1131l112 -170v-20h-411z" />
<glyph unicode="&#x129;" horiz-adv-x="540" d="M29 1184q13 52 52.5 79t86.5 27q44 0 101 -26.5t93 -26.5q32 0 59.5 14t33.5 35l57 -29q-36 -104 -150 -104q-36 0 -97 27.5t-97 27.5q-31 0 -54 -13.5t-30 -37.5zM94 0v18l105 158v410q0 109 -25.5 169.5t-77.5 94.5l223 121h48v-795l102 -158v-18h-375z" />
<glyph unicode="&#x12a;" horiz-adv-x="641" d="M94 1735v69h451v-69h-451zM115 0v20l114 170v1131l-79 164v20h342v-20l-78 -164v-1131l112 -170v-20h-411z" />
<glyph unicode="&#x12b;" horiz-adv-x="632" d="M102 1171v70h451v-70h-451zM154 0v18l104 158v410q0 110 -25 170t-77 94l223 121h47v-795l102 -158v-18h-374z" />
<glyph unicode="&#x12c;" horiz-adv-x="641" d="M98 1898h86q0 -59 38.5 -96t99.5 -37t99 37t38 96h86q0 -98 -64 -164.5t-159 -66.5t-159.5 66.5t-64.5 164.5zM115 0v20l114 170v1131l-79 164v20h342v-20l-78 -164v-1131l112 -170v-20h-411z" />
<glyph unicode="&#x12d;" horiz-adv-x="540" d="M47 1335h86q0 -59 38 -96t99 -37t99.5 37t38.5 96h86q0 -98 -64.5 -164.5t-159.5 -66.5t-159 66.5t-64 164.5zM94 0v18l105 158v410q0 109 -25.5 169.5t-77.5 94.5l223 121h48v-795l102 -158v-18h-375z" />
<glyph unicode="&#x12e;" horiz-adv-x="641" d="M115 0v20l114 170v1131l-79 164v20h342v-20l-78 -164v-1131l112 -170v-20h-159q-125 -89 -125 -211q0 -38 20.5 -69t67.5 -31q69 0 137 80l51 -43q-43 -54 -99 -82.5t-104 -28.5q-89 0 -134.5 42.5t-45.5 115.5q0 61 44.5 121t107.5 106h-172z" />
<glyph unicode="&#x12f;" horiz-adv-x="540" d="M94 0v18l105 158v410q0 109 -25.5 169.5t-77.5 94.5l223 121h48v-795l102 -158v-18h-141q-125 -89 -125 -211q0 -38 20.5 -69t67.5 -31q69 0 137 80l51 -43q-43 -54 -99 -82.5t-104 -28.5q-89 0 -134.5 42.5t-45.5 115.5q0 61 44.5 121t107.5 106h-154zM156 1229 q0 47 33.5 80.5t80.5 33.5t81 -33.5t34 -80.5t-34 -81t-81 -34t-80.5 34t-33.5 81z" />
<glyph unicode="&#x130;" horiz-adv-x="641" d="M115 0v20l114 170v1131l-79 164v20h342v-20l-78 -164v-1131l112 -170v-20h-411zM207 1792q0 47 34 81t81 34t80.5 -34t33.5 -81t-33.5 -81t-80.5 -34t-81 34t-34 81z" />
<glyph unicode="&#x131;" horiz-adv-x="540" d="M94 0v18l105 158v410q0 109 -25.5 169.5t-77.5 94.5l223 121h48v-795l102 -158v-18h-375z" />
<glyph unicode="&#x134;" horiz-adv-x="1101" d="M45 295q0 106 64 188l200 -133q-88 -34 -88 -133q0 -87 64 -138.5t166 -51.5q243 0 243 313v979l-209 168v18h510v-18l-116 -168v-928q0 -37 -3.5 -71t-14.5 -77.5t-29 -80t-50.5 -73t-75 -62t-106 -41t-141.5 -15.5q-183 0 -298.5 90.5t-115.5 233.5zM522 1663v12 l228 262l227 -262v-12h-90l-135 121l-140 -121h-90z" />
<glyph unicode="&#x135;" horiz-adv-x="518" d="M27 -401q86 19 122.5 108t36.5 281v598q0 110 -23.5 170.5t-74.5 93.5l221 121h45v-961q0 -96 -17 -172.5t-54 -138.5t-102 -95.5t-154 -33.5v29zM33 1100v12l227 262l227 -262v-12h-90l-135 121l-139 -121h-90z" />
<glyph unicode="&#x136;" horiz-adv-x="1333" d="M102 0v18l123 172v1127l-114 168v20h413v-20l-114 -168v-477l528 483l-82 164v18h389v-20l-209 -168l-501 -451h157l576 -932h-31l-256 115l-483 785l-88 -80v-564l122 -172v-18h-430zM549 -221l117 112l116 -112l-108 -348h-31q2 11 4 29t2 68t-7 93t-31 88.5t-62 69.5z " />
<glyph unicode="&#x137;" horiz-adv-x="1101" d="M92 0v18l103 158v944q0 110 -24 170.5t-77 93.5l221 121h47v-942l357 248l-64 107v24h346v-29l-456 -313l366 -424l148 -156v-20h-420v23l82 149l-295 348l-64 -47v-297l101 -158v-18h-371zM428 -221l117 112l117 -112l-109 -348h-31q2 11 4 29t2 68t-7 93t-31 88.5 t-62 69.5z" />
<glyph unicode="&#x138;" horiz-adv-x="1101" d="M92 0v18l103 158v582l-103 164v20h371v-20l-101 -164v-215l365 262l-72 113v24h346v-29l-456 -333l366 -404l148 -156v-20h-420v23l82 149l-295 328l-64 -47v-277l101 -158v-18h-371z" />
<glyph unicode="&#x139;" horiz-adv-x="1189" d="M102 1483v22h414v-22l-115 -162v-1255h279q70 0 127.5 24.5t92.5 63.5t55 78t26 75l184 -137q-9 -30 -22 -52t-45 -45.5t-81 -38.5t-131.5 -24.5t-193.5 -9.5h-583v18l108 170v1133zM152 1667l161 272h199v-12l-330 -260h-30z" />
<glyph unicode="&#x13a;" horiz-adv-x="565" d="M92 0v20l107 156v944q0 109 -25.5 169.5t-77.5 94.5l226 121h45v-1329l102 -158v-18h-377zM121 1667l162 272h198v-12l-329 -260h-31z" />
<glyph unicode="&#x13b;" horiz-adv-x="1189" d="M102 1483v22h414v-22l-115 -162v-1255h279q70 0 127.5 24.5t92.5 63.5t55 78t26 75l184 -137q-9 -30 -22 -52t-45 -45.5t-81 -38.5t-131.5 -24.5t-193.5 -9.5h-583v18l108 170v1133zM477 -221l117 112l117 -112l-109 -348h-31q2 11 4 29t2 68t-7 93t-31 88.5t-62 69.5z " />
<glyph unicode="&#x13c;" horiz-adv-x="565" d="M92 0v20l107 156v944q0 109 -25.5 169.5t-77.5 94.5l226 121h45v-1329l102 -158v-18h-377zM164 -221l117 112l116 -112l-108 -348h-31q2 11 4 29t2 68t-7 93t-31 88.5t-62 69.5z" />
<glyph unicode="&#x13d;" horiz-adv-x="1189" d="M84 1905v12h90l139 -121l136 121h90v-12l-228 -263zM102 1483v22h414v-22l-115 -162v-1255h279q70 0 127.5 24.5t92.5 63.5t55 78t26 75l184 -137q-9 -30 -22 -52t-45 -45.5t-81 -38.5t-131.5 -24.5t-193.5 -9.5h-583v18l108 170v1133z" />
<glyph unicode="&#x13e;" horiz-adv-x="643" d="M92 1905v12h90l140 -121l135 121h90v-12l-228 -263zM131 0v20l107 156v944q0 109 -25.5 169.5t-77.5 94.5l225 121h46v-1329l102 -158v-18h-377z" />
<glyph unicode="&#x141;" horiz-adv-x="1214" d="M102 512v84l140 49v676l-115 162v22h414v-22l-115 -162v-619l283 103v-84l-283 -103v-552h279q70 0 127.5 24.5t92.5 63.5t55 78t26 75l184 -137q-9 -30 -22 -52t-45 -45.5t-81 -38.5t-131.5 -24.5t-193.5 -9.5h-584v18l109 170v373z" />
<glyph unicode="&#x142;" horiz-adv-x="610" d="M41 545v86l174 61v428q0 110 -25 170t-77 94l225 121h45v-764l186 66v-86l-186 -66v-479l102 -158v-18h-376v20l106 156v430z" />
<glyph unicode="&#x143;" horiz-adv-x="1474" d="M86 0v18l127 172v1125l-127 172v18h231l859 -1159v973l-123 168v18h336v-18l-123 -168v-1331h-74l-889 1220v-1018l127 -172v-18h-344zM575 1667l162 272h199v-12l-330 -260h-31z" />
<glyph unicode="&#x144;" horiz-adv-x="1198" d="M111 860l225 98h45v-145q48 76 123.5 117t169.5 41q41 0 83.5 -9t90.5 -33t84.5 -61.5t61 -101t24.5 -143.5v-447l98 -158v-18h-364v18l98 158v422q0 132 -56 205.5t-171 73.5q-108 0 -175 -73t-67 -163v-465l98 -158v-18h-364v18l98 158v422q0 109 -25 169.5t-77 92.5z M434 1104l162 272h199v-12l-330 -260h-31z" />
<glyph unicode="&#x145;" horiz-adv-x="1474" d="M86 0v18l127 172v1125l-127 172v18h231l859 -1159v973l-123 168v18h336v-18l-123 -168v-1331h-74l-889 1220v-1018l127 -172v-18h-344zM618 -221l117 112l117 -112l-109 -348h-30q2 11 4 29t1.5 68t-7.5 93t-31 88.5t-62 69.5z" />
<glyph unicode="&#x146;" horiz-adv-x="1198" d="M111 860l225 98h45v-145q48 76 123.5 117t169.5 41q41 0 83.5 -9t90.5 -33t84.5 -61.5t61 -101t24.5 -143.5v-447l98 -158v-18h-364v18l98 158v422q0 132 -56 205.5t-171 73.5q-108 0 -175 -73t-67 -163v-465l98 -158v-18h-364v18l98 158v422q0 109 -25 169.5t-77 92.5z M477 -221l117 112l117 -112l-109 -348h-31q2 11 4 29t2 68t-7 93t-31 88.5t-62 69.5z" />
<glyph unicode="&#x147;" horiz-adv-x="1474" d="M86 0v18l127 172v1125l-127 172v18h231l859 -1159v973l-123 168v18h336v-18l-123 -168v-1331h-74l-889 1220v-1018l127 -172v-18h-344zM508 1905v12h90l139 -121l135 121h91v-12l-228 -263z" />
<glyph unicode="&#x148;" horiz-adv-x="1198" d="M111 860l225 98h45v-145q48 76 123.5 117t169.5 41q41 0 83.5 -9t90.5 -33t84.5 -61.5t61 -101t24.5 -143.5v-447l98 -158v-18h-364v18l98 158v422q0 132 -56 205.5t-171 73.5q-108 0 -175 -73t-67 -163v-465l98 -158v-18h-364v18l98 158v422q0 109 -25 169.5t-77 92.5z M367 1341v13h90l139 -121l135 121h90v-13l-227 -262z" />
<glyph unicode="&#x149;" horiz-adv-x="1204" d="M111 860l225 98h45v-145q48 76 123.5 117t169.5 41q41 0 83.5 -9t90.5 -33t84.5 -61.5t61 -101t24.5 -143.5v-447l98 -158v-18h-364v18l98 158v422q0 132 -56 205.5t-171 73.5q-108 0 -175 -73t-67 -163v-465l98 -158v-18h-364v18l98 158v422q0 109 -25 169.5t-77 92.5z M164 1421l117 113l116 -113l-108 -348h-31q2 11 4 29t2 68t-7 93t-31 88.5t-62 69.5z" />
<glyph unicode="&#x14a;" horiz-adv-x="1474" d="M86 0v18l127 172v1125l-127 172v18h231l859 -1159v973l-123 168v18h336v-18l-123 -168v-1296l12 -35q0 -418 -268 -418v29q89 19 133 111t43 278v8l-883 1212v-1018l127 -172v-18h-344z" />
<glyph unicode="&#x14b;" horiz-adv-x="1138" d="M111 860l225 98h45v-145q48 76 123.5 117t169.5 41q41 0 83.5 -9t90.5 -33t84.5 -61.5t61 -101t24.5 -143.5v-613q0 -96 -17 -172.5t-54 -138t-102.5 -95.5t-154.5 -34v29q86 19 123 108t37 281v610q0 132 -56 205.5t-171 73.5q-108 0 -175 -73t-67 -163v-465l98 -158 v-18h-364v18l98 158v422q0 109 -25 169.5t-77 92.5z" />
<glyph unicode="&#x14c;" horiz-adv-x="1748" d="M90 752q0 225 96.5 402.5t275 278.5t410.5 101t412 -100.5t277.5 -278t97.5 -403.5q0 -221 -98.5 -399t-279 -280t-409.5 -102q-230 0 -409 101.5t-276 279t-97 400.5zM299 856q0 -219 82 -408t225.5 -302t313.5 -113q238 0 384 171t146 441q0 226 -86.5 417t-231.5 301 t-313 110q-160 0 -279.5 -83t-180 -222t-60.5 -312zM647 1735v69h451v-69h-451z" />
<glyph unicode="&#x14d;" horiz-adv-x="1187" d="M82 471q0 118 44.5 215t117.5 158t163 94t185 33q96 0 187 -32.5t164.5 -92t118 -154t44.5 -209.5q0 -120 -43.5 -219.5t-114.5 -162t-159 -96.5t-181 -34q-108 0 -202.5 33t-167 95t-114.5 158t-42 214zM283 502q0 -212 95 -344.5t249 -132.5q128 0 203 116t75 312 q0 206 -90.5 335.5t-234.5 129.5q-136 0 -216.5 -112.5t-80.5 -303.5zM367 1171v70h450v-70h-450z" />
<glyph unicode="&#x14e;" horiz-adv-x="1748" d="M90 752q0 225 96.5 402.5t275 278.5t410.5 101t412 -100.5t277.5 -278t97.5 -403.5q0 -221 -98.5 -399t-279 -280t-409.5 -102q-230 0 -409 101.5t-276 279t-97 400.5zM299 856q0 -219 82 -408t225.5 -302t313.5 -113q238 0 384 171t146 441q0 226 -86.5 417t-231.5 301 t-313 110q-160 0 -279.5 -83t-180 -222t-60.5 -312zM651 1898h86q0 -59 38 -96t99 -37t99.5 37t38.5 96h86q0 -98 -64.5 -164.5t-159.5 -66.5t-159 66.5t-64 164.5z" />
<glyph unicode="&#x14f;" horiz-adv-x="1187" d="M82 471q0 118 44.5 215t117.5 158t163 94t185 33q96 0 187 -32.5t164.5 -92t118 -154t44.5 -209.5q0 -120 -43.5 -219.5t-114.5 -162t-159 -96.5t-181 -34q-108 0 -202.5 33t-167 95t-114.5 158t-42 214zM283 502q0 -212 95 -344.5t249 -132.5q128 0 203 116t75 312 q0 206 -90.5 335.5t-234.5 129.5q-136 0 -216.5 -112.5t-80.5 -303.5zM371 1335h86q0 -59 38 -96t99 -37t99 37t38 96h86q0 -98 -64 -164.5t-159 -66.5t-159 66.5t-64 164.5z" />
<glyph unicode="&#x150;" horiz-adv-x="1748" d="M90 752q0 225 96.5 402.5t275 278.5t410.5 101t412 -100.5t277.5 -278t97.5 -403.5q0 -221 -98.5 -399t-279 -280t-409.5 -102q-230 0 -409 101.5t-276 279t-97 400.5zM299 856q0 -219 82 -408t225.5 -302t313.5 -113q238 0 384 171t146 441q0 226 -86.5 417t-231.5 301 t-313 110q-160 0 -279.5 -83t-180 -222t-60.5 -312zM684 1663l113 272h204v-12l-286 -260h-31zM934 1665l113 272h204v-12l-286 -260h-31z" />
<glyph unicode="&#x151;" horiz-adv-x="1187" d="M82 471q0 118 44.5 215t117.5 158t163 94t185 33q96 0 187 -32.5t164.5 -92t118 -154t44.5 -209.5q0 -120 -43.5 -219.5t-114.5 -162t-159 -96.5t-181 -34q-108 0 -202.5 33t-167 95t-114.5 158t-42 214zM283 502q0 -212 95 -344.5t249 -132.5q128 0 203 116t75 312 q0 206 -90.5 335.5t-234.5 129.5q-136 0 -216.5 -112.5t-80.5 -303.5zM403 1100l113 272h205v-12l-287 -260h-31zM653 1102l113 272h205v-12l-287 -260h-31z" />
<glyph unicode="&#x152;" horiz-adv-x="2426" d="M90 752q0 168 56.5 313t157 248.5t245.5 162t317 58.5q101 0 197 -29h1114l74 -329h-33l-256 276h-463v-586h338l148 101v2h20v-312h-20l-148 142h-338v-746h354q56 0 105 17.5t81.5 43.5t58.5 61t40.5 65.5t22.5 60.5l184 -199q-81 -65 -162.5 -83.5t-265.5 -18.5h-815 q-113 -29 -228 -29q-231 0 -410.5 101.5t-276.5 279t-97 400.5zM299 807q0 -149 44 -289.5t121.5 -250t193.5 -176t249 -66.5q128 0 232.5 49t175.5 139v1014q-149 252 -479 252q-253 0 -395 -184t-142 -488z" />
<glyph unicode="&#x153;" horiz-adv-x="1902" d="M82 471q0 118 44.5 215t118 158t164 94t185.5 33q124 0 243 -61.5t164 -168.5q110 225 394 228q205 0 318.5 -110t113.5 -310v-33h-719q2 -64 15.5 -124.5t42.5 -117.5t69.5 -99.5t100.5 -68.5t132 -26q83 0 162 39.5t129 124.5l60 -25q-84 -192 -281 -236 q-52 -12 -111 -12q-138 0 -252.5 63t-164.5 171q-34 -74 -101.5 -128.5t-144.5 -80t-154 -25.5q-109 0 -204 33t-167.5 95t-114.5 158t-42 214zM281 502q0 -212 96.5 -344.5t251.5 -132.5q129 0 204.5 115.5t75.5 312.5q0 206 -90.5 335.5t-236.5 129.5 q-138 0 -219.5 -112.5t-81.5 -303.5zM1108 565l537 27q-1 90 -27.5 158t-67.5 104t-83 53t-83 17q-128 0 -200.5 -100.5t-75.5 -258.5z" />
<glyph unicode="&#x154;" horiz-adv-x="1259" d="M102 1487v18h428q45 0 88 -3t100.5 -12.5t106 -25.5t98 -44.5t84.5 -66t56.5 -93.5t21.5 -125q0 -65 -21 -119t-53.5 -90t-79.5 -64t-92 -44t-98 -26.5t-90 -14t-76 -5.5l175 -61l485 -766h-33l-244 100l-471 727h-65v-582l123 -172v-18h-430v18l123 172v1127zM422 834 h135q176 0 264 76.5t88 234.5q0 299 -383 299h-104v-610zM469 1667l162 272h198v-12l-329 -260h-31z" />
<glyph unicode="&#x155;" horiz-adv-x="905" d="M86 858l225 98h47v-116q45 64 114.5 97.5t152.5 33.5t151.5 -34t108.5 -95l-144 -197l-30 19q0 104 -42 159.5t-124 55.5q-83 0 -135 -64.5t-52 -167.5v-471l99 -158v-18h-367v18l100 158v420q0 108 -26 169t-78 93zM291 1104l162 272h198v-12l-329 -260h-31z" />
<glyph unicode="&#x156;" horiz-adv-x="1259" d="M102 1487v18h428q45 0 88 -3t100.5 -12.5t106 -25.5t98 -44.5t84.5 -66t56.5 -93.5t21.5 -125q0 -65 -21 -119t-53.5 -90t-79.5 -64t-92 -44t-98 -26.5t-90 -14t-76 -5.5l175 -61l485 -766h-33l-244 100l-471 727h-65v-582l123 -172v-18h-430v18l123 172v1127zM422 834 h135q176 0 264 76.5t88 234.5q0 299 -383 299h-104v-610zM512 -221l117 112l116 -112l-108 -348h-31q2 11 4 29t2 68t-7 93t-31 88.5t-62 69.5z" />
<glyph unicode="&#x157;" horiz-adv-x="905" d="M86 858l225 98h47v-116q45 64 114.5 97.5t152.5 33.5t151.5 -34t108.5 -95l-144 -197l-30 19q0 104 -42 159.5t-124 55.5q-83 0 -135 -64.5t-52 -167.5v-471l99 -158v-18h-367v18l100 158v420q0 108 -26 169t-78 93zM334 -221l117 112l116 -112l-108 -348h-31q2 11 4 29 t2 68t-7 93t-31 88.5t-62 69.5z" />
<glyph unicode="&#x158;" horiz-adv-x="1259" d="M102 1487v18h428q45 0 88 -3t100.5 -12.5t106 -25.5t98 -44.5t84.5 -66t56.5 -93.5t21.5 -125q0 -65 -21 -119t-53.5 -90t-79.5 -64t-92 -44t-98 -26.5t-90 -14t-76 -5.5l175 -61l485 -766h-33l-244 100l-471 727h-65v-582l123 -172v-18h-430v18l123 172v1127zM401 1905 v12h91l139 -121l135 121h90v-12l-227 -263zM422 834h135q176 0 264 76.5t88 234.5q0 299 -383 299h-104v-610z" />
<glyph unicode="&#x159;" horiz-adv-x="905" d="M86 858l225 98h47v-116q45 64 114.5 97.5t152.5 33.5t151.5 -34t108.5 -95l-144 -197l-30 19q0 104 -42 159.5t-124 55.5q-83 0 -135 -64.5t-52 -167.5v-471l99 -158v-18h-367v18l100 158v420q0 108 -26 169t-78 93zM223 1341v13h90l140 -121l135 121h90v-13l-227 -262z " />
<glyph unicode="&#x15a;" horiz-adv-x="1224" d="M123 0v401h59q14 -74 43 -133t61.5 -96t75.5 -63.5t76 -39t72.5 -19.5t56 -8t35.5 -1q72 0 135.5 16t115.5 48t82 86t30 124q0 71 -28 128t-75.5 95.5t-108.5 70.5t-129 59.5t-136 56.5t-129 67t-108.5 85.5t-75.5 117t-28 156.5t29.5 155.5t76 110.5t108.5 69t121 37.5 t120 10.5q170 0 297.5 -69t181.5 -191l-194 -135h-23q15 58 15 88q0 121 -74 185.5t-211 64.5q-126 0 -208.5 -68.5t-82.5 -183.5q0 -63 28 -114t76 -87.5t109.5 -68t129.5 -59.5t136.5 -58t130 -68.5t109.5 -84.5t76 -113t28 -148q0 -216 -146 -334.5t-386 -118.5 q-91 0 -171 24.5t-130 67.5l-146 -63h-24zM451 1667l161 272h199v-12l-330 -260h-30z" />
<glyph unicode="&#x15b;" horiz-adv-x="925" d="M102 721q0 116 100.5 183t243.5 67q284 0 373 -174l-186 -138l-27 19q15 37 15 65q0 70 -45.5 122.5t-135.5 52.5q-72 0 -121 -41t-49 -113q0 -50 32 -89.5t83.5 -66t113.5 -51t124 -52.5t113.5 -61.5t83.5 -86t32 -119.5q0 -128 -108 -197.5t-273 -69.5q-146 0 -231 58 l-107 -43h-27v276h48q35 -106 116 -169.5t185 -63.5q106 0 159.5 46t53.5 122q0 42 -24.5 76.5t-64 58t-90.5 47t-104 43.5t-104 48.5t-90.5 60.5t-64 81t-24.5 109zM289 1104l162 272h198v-12l-330 -260h-30z" />
<glyph unicode="&#x15c;" horiz-adv-x="1224" d="M123 0v401h59q14 -74 43 -133t61.5 -96t75.5 -63.5t76 -39t72.5 -19.5t56 -8t35.5 -1q72 0 135.5 16t115.5 48t82 86t30 124q0 71 -28 128t-75.5 95.5t-108.5 70.5t-129 59.5t-136 56.5t-129 67t-108.5 85.5t-75.5 117t-28 156.5t29.5 155.5t76 110.5t108.5 69t121 37.5 t120 10.5q170 0 297.5 -69t181.5 -191l-194 -135h-23q15 58 15 88q0 121 -74 185.5t-211 64.5q-126 0 -208.5 -68.5t-82.5 -183.5q0 -63 28 -114t76 -87.5t109.5 -68t129.5 -59.5t136.5 -58t130 -68.5t109.5 -84.5t76 -113t28 -148q0 -216 -146 -334.5t-386 -118.5 q-91 0 -171 24.5t-130 67.5l-146 -63h-24zM383 1663v12l227 262l228 -262v-12h-90l-136 121l-139 -121h-90z" />
<glyph unicode="&#x15d;" horiz-adv-x="925" d="M102 721q0 116 100.5 183t243.5 67q284 0 373 -174l-186 -138l-27 19q15 37 15 65q0 70 -45.5 122.5t-135.5 52.5q-72 0 -121 -41t-49 -113q0 -50 32 -89.5t83.5 -66t113.5 -51t124 -52.5t113.5 -61.5t83.5 -86t32 -119.5q0 -128 -108 -197.5t-273 -69.5q-146 0 -231 58 l-107 -43h-27v276h48q35 -106 116 -169.5t185 -63.5q106 0 159.5 46t53.5 122q0 42 -24.5 76.5t-64 58t-90.5 47t-104 43.5t-104 48.5t-90.5 60.5t-64 81t-24.5 109zM221 1100v12l228 262l227 -262v-12h-90l-135 121l-140 -121h-90z" />
<glyph unicode="&#x15e;" horiz-adv-x="1224" d="M123 0v401h59q14 -74 43 -133t61.5 -96t75.5 -63.5t76 -39t72.5 -19.5t56 -8t35.5 -1q72 0 135.5 16t115.5 48t82 86t30 124q0 71 -28 128t-75.5 95.5t-108.5 70.5t-129 59.5t-136 56.5t-129 67t-108.5 85.5t-75.5 117t-28 156.5t29.5 155.5t76 110.5t108.5 69t121 37.5 t120 10.5q170 0 297.5 -69t181.5 -191l-194 -135h-23q15 58 15 88q0 121 -74 185.5t-211 64.5q-126 0 -208.5 -68.5t-82.5 -183.5q0 -63 28 -114t76 -87.5t109.5 -68t129.5 -59.5t136.5 -58t130 -68.5t109.5 -84.5t76 -113t28 -148q0 -198 -123 -314t-331 -135l-47 -69 q172 -41 172 -156q0 -147 -213 -147q-46 0 -88 10l2 35q24 -6 65 -6q56 0 84.5 21t28.5 69q0 29 -20 51t-52 32.5t-54 15.5t-44 7v17l98 116h-10q-91 0 -171 24.5t-130 67.5l-146 -63h-24z" />
<glyph unicode="&#x15f;" horiz-adv-x="925" d="M102 721q0 116 100.5 183t243.5 67q284 0 373 -174l-186 -138l-27 19q15 37 15 65q0 70 -45.5 122.5t-135.5 52.5q-72 0 -121 -41t-49 -113q0 -50 32 -89.5t83.5 -66t113.5 -51t124 -52.5t113.5 -61.5t83.5 -86t32 -119.5q0 -117 -90.5 -185.5t-233.5 -79.5l-47 -67 q172 -41 172 -156q0 -147 -213 -147q-46 0 -88 10l2 35q24 -6 66 -6q56 0 84 21t28 69q0 29 -20 51t-52 32.5t-54 15.5t-44 7v17l99 116q-139 3 -221 58l-107 -43h-27v276h48q35 -106 116 -169.5t185 -63.5q106 0 159.5 46t53.5 122q0 42 -24.5 76.5t-64 58t-90.5 47 t-104 43.5t-104 48.5t-90.5 60.5t-64 81t-24.5 109z" />
<glyph unicode="&#x160;" horiz-adv-x="1224" d="M123 0v401h59q14 -74 43 -133t61.5 -96t75.5 -63.5t76 -39t72.5 -19.5t56 -8t35.5 -1q72 0 135.5 16t115.5 48t82 86t30 124q0 71 -28 128t-75.5 95.5t-108.5 70.5t-129 59.5t-136 56.5t-129 67t-108.5 85.5t-75.5 117t-28 156.5t29.5 155.5t76 110.5t108.5 69t121 37.5 t120 10.5q170 0 297.5 -69t181.5 -191l-194 -135h-23q15 58 15 88q0 121 -74 185.5t-211 64.5q-126 0 -208.5 -68.5t-82.5 -183.5q0 -63 28 -114t76 -87.5t109.5 -68t129.5 -59.5t136.5 -58t130 -68.5t109.5 -84.5t76 -113t28 -148q0 -216 -146 -334.5t-386 -118.5 q-91 0 -171 24.5t-130 67.5l-146 -63h-24zM381 1847v13h63l152 -117l147 117h68v-13l-195 -250h-41z" />
<glyph unicode="&#x161;" horiz-adv-x="925" d="M102 721q0 116 100.5 183t243.5 67q284 0 373 -174l-186 -138l-27 19q15 37 15 65q0 70 -45.5 122.5t-135.5 52.5q-72 0 -121 -41t-49 -113q0 -50 32 -89.5t83.5 -66t113.5 -51t124 -52.5t113.5 -61.5t83.5 -86t32 -119.5q0 -128 -108 -197.5t-273 -69.5q-146 0 -231 58 l-107 -43h-27v276h48q35 -106 116 -169.5t185 -63.5q106 0 159.5 46t53.5 122q0 42 -24.5 76.5t-64 58t-90.5 47t-104 43.5t-104 48.5t-90.5 60.5t-64 81t-24.5 109zM219 1323v12h68l147 -116l152 116h63v-12l-194 -250h-41z" />
<glyph unicode="&#x162;" horiz-adv-x="1323" d="M37 1167l65 338h1119l65 -338h-33l-256 277h-243v-1254l127 -172v-18h-142l-65 -94q172 -41 172 -156q0 -147 -213 -147q-46 0 -88 10l2 35q24 -6 65 -6q56 0 84.5 21t28.5 69q0 29 -20 51t-52 32.5t-54 15.5t-44 7v17l123 145h-236v18l127 172v1254h-243l-256 -277h-33z " />
<glyph unicode="&#x163;" horiz-adv-x="714" d="M53 877v22l262 346h37v-303h285v-65h-285v-680q0 -63 41 -98.5t101 -35.5t96 33t49 70l47 -19q-5 -26 -21.5 -54.5t-45 -57t-75 -46.5t-102.5 -18q-24 0 -34 2l-48 -67q172 -41 172 -156q0 -147 -213 -147q-46 0 -88 10l2 35q24 -6 66 -6q56 0 84.5 21t28.5 69 q0 29 -20 51t-52 32.5t-54 15.5t-44 7v17l106 127q-164 38 -164 231v664h-131z" />
<glyph unicode="&#x164;" horiz-adv-x="1323" d="M37 1167l65 338h1119l65 -338h-33l-256 277h-243v-1254l127 -172v-18h-439v18l127 172v1254h-243l-256 -277h-33zM432 1905v12h90l140 -121l135 121h90v-12l-228 -263z" />
<glyph unicode="&#x165;" horiz-adv-x="714" d="M53 877v22l262 346h37v-303h285v-65h-285v-680q0 -63 41 -98.5t101 -35.5t96 33t49 70l47 -19q-5 -26 -21.5 -54.5t-45 -57t-75 -46.5t-102.5 -18q-258 0 -258 242v664h-131zM102 1645v12h91l139 -121l135 121h90v-12l-227 -263z" />
<glyph unicode="&#x166;" horiz-adv-x="1323" d="M37 1167l65 338h1119l65 -338h-33l-256 277h-243v-658h252v-65h-252v-531l127 -172v-18h-439v18l127 172v531h-252v65h252v658h-243l-256 -277h-33z" />
<glyph unicode="&#x167;" horiz-adv-x="714" d="M53 877v22l262 346h37v-303h285v-65h-285v-179h162v-65h-162v-436q0 -63 41 -98.5t101 -35.5t96 33t49 70l47 -19q-5 -26 -21.5 -54.5t-45 -57t-75 -46.5t-102.5 -18q-258 0 -258 242v420h-129v65h129v179h-131z" />
<glyph unicode="&#x168;" horiz-adv-x="1456" d="M102 1489v16h410v-16l-111 -170v-930q0 -77 31 -139.5t83.5 -101.5t117.5 -59.5t135 -20.5q83 0 148 22.5t104 56.5t64 78.5t34.5 84t9.5 77.5v932l-122 170v16h352v-16l-123 -170v-918q0 -30 -4.5 -63t-18.5 -76t-35.5 -82t-59.5 -78t-87 -67.5t-121 -46t-159 -17.5 q-76 0 -150 14.5t-144 46.5t-122.5 79t-84.5 117t-32 155v936zM502 1747q13 52 52.5 79t86.5 27q44 0 101.5 -26.5t93.5 -26.5q32 0 59 14t33 35l57 -28q-36 -105 -149 -105q-36 0 -97.5 28t-97.5 28q-31 0 -54 -14t-30 -38z" />
<glyph unicode="&#x169;" horiz-adv-x="1138" d="M82 858l199 98h47v-634q0 -119 53 -191t162 -72q68 0 118.5 22t78.5 60t41.5 82.5t13.5 95.5v277q0 113 -19.5 172t-66.5 90l209 98h45v-780l81 -153v-23h-245v102q-41 -62 -101 -96.5t-172 -34.5q-49 0 -96.5 9t-97.5 33.5t-87 62t-61 100t-24 141.5v279 q0 120 -15.5 177t-62.5 85zM301 1184q13 52 52.5 79t86.5 27q44 0 102 -26.5t93 -26.5q32 0 59 14t33 35l57 -29q-36 -104 -149 -104q-36 0 -97.5 27.5t-97.5 27.5q-31 0 -54 -13.5t-30 -37.5z" />
<glyph unicode="&#x16a;" horiz-adv-x="1456" d="M102 1489v16h410v-16l-111 -170v-930q0 -77 31 -139.5t83.5 -101.5t117.5 -59.5t135 -20.5q83 0 148 22.5t104 56.5t64 78.5t34.5 84t9.5 77.5v932l-122 170v16h352v-16l-123 -170v-918q0 -30 -4.5 -63t-18.5 -76t-35.5 -82t-59.5 -78t-87 -67.5t-121 -46t-159 -17.5 q-76 0 -150 14.5t-144 46.5t-122.5 79t-84.5 117t-32 155v936zM516 1735v69h451v-69h-451z" />
<glyph unicode="&#x16b;" horiz-adv-x="1138" d="M82 858l199 98h47v-634q0 -119 53 -191t162 -72q68 0 118.5 22t78.5 60t41.5 82.5t13.5 95.5v277q0 113 -19.5 172t-66.5 90l209 98h45v-780l81 -153v-23h-245v102q-41 -62 -101 -96.5t-172 -34.5q-49 0 -96.5 9t-97.5 33.5t-87 62t-61 100t-24 141.5v279 q0 120 -15.5 177t-62.5 85zM315 1171v70h451v-70h-451z" />
<glyph unicode="&#x16c;" horiz-adv-x="1456" d="M102 1489v16h410v-16l-111 -170v-930q0 -77 31 -139.5t83.5 -101.5t117.5 -59.5t135 -20.5q83 0 148 22.5t104 56.5t64 78.5t34.5 84t9.5 77.5v932l-122 170v16h352v-16l-123 -170v-918q0 -30 -4.5 -63t-18.5 -76t-35.5 -82t-59.5 -78t-87 -67.5t-121 -46t-159 -17.5 q-76 0 -150 14.5t-144 46.5t-122.5 79t-84.5 117t-32 155v936zM520 1898h86q0 -59 38 -96t99 -37t99.5 37t38.5 96h86q0 -98 -64.5 -164.5t-159.5 -66.5t-159 66.5t-64 164.5z" />
<glyph unicode="&#x16d;" horiz-adv-x="1138" d="M82 858l199 98h47v-634q0 -119 53 -191t162 -72q68 0 118.5 22t78.5 60t41.5 82.5t13.5 95.5v277q0 113 -19.5 172t-66.5 90l209 98h45v-780l81 -153v-23h-245v102q-41 -62 -101 -96.5t-172 -34.5q-49 0 -96.5 9t-97.5 33.5t-87 62t-61 100t-24 141.5v279 q0 120 -15.5 177t-62.5 85zM319 1335h87q0 -59 38 -96t99 -37t99 37t38 96h86q0 -98 -64 -164.5t-159 -66.5t-159.5 66.5t-64.5 164.5z" />
<glyph unicode="&#x16e;" horiz-adv-x="1456" d="M102 1489v16h410v-16l-111 -170v-930q0 -77 31 -139.5t83.5 -101.5t117.5 -59.5t135 -20.5q83 0 148 22.5t104 56.5t64 78.5t34.5 84t9.5 77.5v932l-122 170v16h352v-16l-123 -170v-918q0 -30 -4.5 -63t-18.5 -76t-35.5 -82t-59.5 -78t-87 -67.5t-121 -46t-159 -17.5 q-76 0 -150 14.5t-144 46.5t-122.5 79t-84.5 117t-32 155v936zM608 1792q0 56 40 95.5t95 39.5q56 0 96 -40t40 -95t-40 -95t-96 -40q-55 0 -95 39.5t-40 95.5zM678 1792q0 -28 18.5 -47t46.5 -19t47 19t19 47t-19 47t-47 19t-46.5 -19t-18.5 -47z" />
<glyph unicode="&#x16f;" horiz-adv-x="1138" d="M82 858l199 98h47v-634q0 -119 53 -191t162 -72q68 0 118.5 22t78.5 60t41.5 82.5t13.5 95.5v277q0 113 -19.5 172t-66.5 90l209 98h45v-780l81 -153v-23h-245v102q-41 -62 -101 -96.5t-172 -34.5q-49 0 -96.5 9t-97.5 33.5t-87 62t-61 100t-24 141.5v279 q0 120 -15.5 177t-62.5 85zM408 1229q0 55 40 95t95 40t95 -40t40 -95t-40 -95t-95 -40t-95 40t-40 95zM477 1229q0 -28 19 -47t47 -19t46.5 19t18.5 47t-18.5 46.5t-46.5 18.5t-47 -18.5t-19 -46.5z" />
<glyph unicode="&#x170;" horiz-adv-x="1456" d="M102 1489v16h410v-16l-111 -170v-930q0 -77 31 -139.5t83.5 -101.5t117.5 -59.5t135 -20.5q83 0 148 22.5t104 56.5t64 78.5t34.5 84t9.5 77.5v932l-122 170v16h352v-16l-123 -170v-918q0 -30 -4.5 -63t-18.5 -76t-35.5 -82t-59.5 -78t-87 -67.5t-121 -46t-159 -17.5 q-76 0 -150 14.5t-144 46.5t-122.5 79t-84.5 117t-32 155v936zM553 1663l113 272h204v-12l-286 -260h-31zM803 1665l112 272h205v-12l-286 -260h-31z" />
<glyph unicode="&#x171;" horiz-adv-x="1138" d="M82 858l199 98h47v-634q0 -119 53 -191t162 -72q68 0 118.5 22t78.5 60t41.5 82.5t13.5 95.5v277q0 113 -19.5 172t-66.5 90l209 98h45v-780l81 -153v-23h-245v102q-41 -62 -101 -96.5t-172 -34.5q-49 0 -96.5 9t-97.5 33.5t-87 62t-61 100t-24 141.5v279 q0 120 -15.5 177t-62.5 85zM352 1100l113 272h205v-12l-287 -260h-31zM602 1102l113 272h205v-12l-287 -260h-31z" />
<glyph unicode="&#x172;" horiz-adv-x="1456" d="M102 1489v16h410v-16l-111 -170v-930q0 -77 31 -139.5t83.5 -101.5t117.5 -59.5t135 -20.5q83 0 148 22.5t104 56.5t64 78.5t34.5 84t9.5 77.5v932l-122 170v16h352v-16l-123 -170v-918q0 -30 -4.5 -63t-18.5 -76t-35.5 -82t-59.5 -78t-87 -67.5t-121 -46t-159 -17.5h-11 q-90 -79 -90 -182q0 -38 20.5 -69t67.5 -31q69 0 137 80l52 -43q-43 -54 -99 -82.5t-104 -28.5q-89 0 -134.5 42.5t-45.5 115.5q0 101 121 202q-69 8 -131.5 27t-121 53t-101 79t-68 109.5t-25.5 139.5v936z" />
<glyph unicode="&#x173;" horiz-adv-x="1138" d="M82 858l199 98h47v-634q0 -119 53 -191t162 -72q68 0 118.5 22t78.5 60t41.5 82.5t13.5 95.5v277q0 113 -19.5 172t-66.5 90l209 98h45v-780l81 -153v-23h-245v102q-25 -38 -52 -63.5t-79.5 -45.5t-124.5 -22q-90 -79 -90 -182q0 -38 20.5 -69t67.5 -31q69 0 137 80 l51 -43q-43 -54 -99 -82.5t-104 -28.5q-89 0 -134.5 42.5t-45.5 115.5q0 97 121 202q-58 7 -109 27t-97.5 58.5t-73.5 104t-27 152.5v279q0 120 -15.5 177t-62.5 85z" />
<glyph unicode="&#x174;" horiz-adv-x="1904" d="M45 1487v18h387v-18l-80 -166l338 -989l217 801l-110 354v18h329v-18l-51 -191l266 -962l324 987l-104 166v18h307v-18l-111 -166l-457 -1350h-43l-301 1014l-280 -1014h-49l-482 1350zM791 1667l161 272h199v-12l-330 -260h-30z" />
<glyph unicode="&#x175;" horiz-adv-x="1482" d="M47 920v22h320v-22l-66 -140l227 -549l177 449l-99 240v22h332v-22l-78 -183l191 -506l231 560l-72 129v22h230v-20l-66 -142l-336 -809h-59l-227 590l-230 -590h-63l-342 805zM512 1100v12l227 262l228 -262v-12h-90l-136 121l-139 -121h-90z" />
<glyph unicode="&#x176;" horiz-adv-x="1171" d="M45 1487v18h408v-18l-99 -166l283 -500l299 498l-115 168v18h309v-18l-450 -744v-553l123 -172v-18h-430v18l123 172v519zM389 1663v12l227 262l228 -262v-12h-90l-136 121l-139 -121h-90z" />
<glyph unicode="&#x177;" horiz-adv-x="1032" d="M16 920v22h369v-18l-86 -144l299 -579l240 581l-95 140v20h265v-22l-68 -134l-442 -1069l73 -127v-20h-264v22l88 125l115 283zM344 1100v12l227 262l228 -262v-12h-90l-136 121l-139 -121h-90z" />
<glyph unicode="&#x178;" horiz-adv-x="1171" d="M45 1487v18h408v-18l-99 -166l283 -500l299 498l-115 168v18h309v-18l-450 -744v-553l123 -172v-18h-430v18l123 172v519zM354 1792l113 117l113 -117l-113 -115zM659 1792l113 117l113 -117l-113 -115z" />
<glyph unicode="&#x179;" horiz-adv-x="1290" d="M61 0v20l795 1424h-502l-264 -252h-29l86 313h949v-18l-791 -1421h453q61 0 109.5 20.5t76.5 51t46 67.5t23.5 67.5t2.5 53.5l221 -191q-28 -39 -75.5 -66.5t-90 -40.5t-104.5 -20t-91 -7.5t-79 -0.5h-736zM483 1667l162 272h199v-12l-330 -260h-31z" />
<glyph unicode="&#x17a;" horiz-adv-x="968" d="M63 0v18l562 871h-291l-223 -215h-39l84 268h690v-18l-559 -869h278q47 0 85 26t57.5 63t29.5 70.5t8 55.5l173 -190q-21 -28 -56 -46t-85 -24.5t-82 -8t-87 -1.5h-545zM324 1104l161 272h199v-12l-330 -260h-30z" />
<glyph unicode="&#x17b;" horiz-adv-x="1290" d="M61 0v20l795 1424h-502l-264 -252h-29l86 313h949v-18l-791 -1421h453q61 0 109.5 20.5t76.5 51t46 67.5t23.5 67.5t2.5 53.5l221 -191q-28 -39 -75.5 -66.5t-90 -40.5t-104.5 -20t-91 -7.5t-79 -0.5h-736zM530 1792q0 47 34 81t81 34t81 -34t34 -81t-34 -81t-81 -34 t-81 34t-34 81z" />
<glyph unicode="&#x17c;" horiz-adv-x="968" d="M63 0v18l562 871h-291l-223 -215h-39l84 268h690v-18l-559 -869h278q47 0 85 26t57.5 63t29.5 70.5t8 55.5l173 -190q-21 -28 -56 -46t-85 -24.5t-82 -8t-87 -1.5h-545zM371 1229q0 47 33.5 80.5t80.5 33.5t81 -33.5t34 -80.5t-34 -81t-81 -34t-80.5 34t-33.5 81z" />
<glyph unicode="&#x17d;" horiz-adv-x="1290" d="M61 0v20l795 1424h-502l-264 -252h-29l86 313h949v-18l-791 -1421h453q61 0 109.5 20.5t76.5 51t46 67.5t23.5 67.5t2.5 53.5l221 -191q-28 -39 -75.5 -66.5t-90 -40.5t-104.5 -20t-91 -7.5t-79 -0.5h-736zM412 1847v13h63l152 -117l147 117h68v-13l-195 -250h-41z" />
<glyph unicode="&#x17e;" horiz-adv-x="968" d="M63 0v18l562 871h-291l-223 -215h-39l84 268h690v-18l-559 -869h278q47 0 85 26t57.5 63t29.5 70.5t8 55.5l173 -190q-21 -28 -56 -46t-85 -24.5t-82 -8t-87 -1.5h-545zM252 1323v12h67l148 -116l151 116h64v-12l-195 -250h-41z" />
<glyph unicode="&#x17f;" horiz-adv-x="722" d="M78 877v65h172v139q0 127 26 217t75 140.5t110.5 73t142.5 22.5q112 0 188.5 -33.5t131.5 -103.5l-168 -135h-45q10 45 10 75q0 68 -37.5 108t-99.5 40q-34 0 -60.5 -9.5t-52 -36t-39.5 -81.5t-14 -137v-1045l102 -158v-18h-373v18l103 158v701h-172z" />
<glyph unicode="&#x1cd;" horiz-adv-x="1419" d="M25 0v18l135 172l448 1121l-61 151l188 56l533 -1328l114 -172v-18h-413v18l100 172l-145 353h-529l-139 -353l129 -172v-18h-360zM422 610h475l-244 590zM481 1905v12h90l140 -121l135 121h90v-12l-227 -263z" />
<glyph unicode="&#x1ce;" horiz-adv-x="1048" d="M82 203q0 61 25.5 113.5t65 89t96 67t111 49t119 32.5t109.5 20.5t92 11.5v139q0 37 -5 65t-20.5 60t-51 50t-88.5 18q-63 0 -107.5 -35.5t-44.5 -100.5q0 -64 63 -112l-178 -121q-42 42 -60 91.5t-18 88.5q0 115 100 178.5t255 63.5q88 0 158 -24.5t117.5 -84.5 t47.5 -149v-537l101 -158v-18h-269v92q-19 -17 -44.5 -33.5t-69.5 -38.5t-105.5 -35.5t-128.5 -13.5q-116 0 -193 58.5t-77 173.5zM285 207q0 -74 42.5 -115t118.5 -41q122 0 254 115v358q-63 -9 -113.5 -20t-109.5 -35t-98.5 -56.5t-66.5 -85.5t-27 -120zM295 1341v13h90 l139 -121l135 121h91v-13l-228 -262z" />
<glyph unicode="&#x1cf;" horiz-adv-x="641" d="M92 1905v12h90l140 -121l135 121h90v-12l-228 -263zM115 0v20l114 170v1131l-79 164v20h342v-20l-78 -164v-1131l112 -170v-20h-411z" />
<glyph unicode="&#x1d0;" horiz-adv-x="540" d="M41 1341v13h90l139 -121l136 121h90v-13l-228 -262zM94 0v18l105 158v410q0 109 -25.5 169.5t-77.5 94.5l223 121h48v-795l102 -158v-18h-375z" />
<glyph unicode="&#x1d1;" horiz-adv-x="1748" d="M90 752q0 225 96.5 402.5t275 278.5t410.5 101t412 -100.5t277.5 -278t97.5 -403.5q0 -221 -98.5 -399t-279 -280t-409.5 -102q-230 0 -409 101.5t-276 279t-97 400.5zM299 856q0 -219 82 -408t225.5 -302t313.5 -113q238 0 384 171t146 441q0 226 -86.5 417t-231.5 301 t-313 110q-160 0 -279.5 -83t-180 -222t-60.5 -312zM645 1905v12h90l139 -121l136 121h90v-12l-228 -263z" />
<glyph unicode="&#x1d2;" horiz-adv-x="1187" d="M82 471q0 118 44.5 215t117.5 158t163 94t185 33q96 0 187 -32.5t164.5 -92t118 -154t44.5 -209.5q0 -120 -43.5 -219.5t-114.5 -162t-159 -96.5t-181 -34q-108 0 -202.5 33t-167 95t-114.5 158t-42 214zM283 502q0 -212 95 -344.5t249 -132.5q128 0 203 116t75 312 q0 206 -90.5 335.5t-234.5 129.5q-136 0 -216.5 -112.5t-80.5 -303.5zM365 1341v13h90l139 -121l135 121h90v-13l-227 -262z" />
<glyph unicode="&#x1d3;" horiz-adv-x="1456" d="M102 1489v16h410v-16l-111 -170v-930q0 -77 31 -139.5t83.5 -101.5t117.5 -59.5t135 -20.5q83 0 148 22.5t104 56.5t64 78.5t34.5 84t9.5 77.5v932l-122 170v16h352v-16l-123 -170v-918q0 -30 -4.5 -63t-18.5 -76t-35.5 -82t-59.5 -78t-87 -67.5t-121 -46t-159 -17.5 q-76 0 -150 14.5t-144 46.5t-122.5 79t-84.5 117t-32 155v936zM514 1905v12h90l139 -121l136 121h90v-12l-228 -263z" />
<glyph unicode="&#x1d4;" horiz-adv-x="1138" d="M82 858l199 98h47v-634q0 -119 53 -191t162 -72q68 0 118.5 22t78.5 60t41.5 82.5t13.5 95.5v277q0 113 -19.5 172t-66.5 90l209 98h45v-780l81 -153v-23h-245v102q-41 -62 -101 -96.5t-172 -34.5q-49 0 -96.5 9t-97.5 33.5t-87 62t-61 100t-24 141.5v279 q0 120 -15.5 177t-62.5 85zM313 1341v13h90l140 -121l135 121h90v-13l-227 -262z" />
<glyph unicode="&#x1fc;" horiz-adv-x="2117" d="M25 0v20l135 173l788 1183l-100 111v18h1020l74 -329h-33l-256 276h-463v-586h338l147 101v2h21v-312h-21l-147 142h-338v-746h354q56 0 105 17.5t81.5 43.5t58.5 61t40 65.5t22 60.5l185 -199q-83 -67 -166.5 -87t-261.5 -15h-731v18l129 170v357h-492l-235 -352 l141 -173h-2v-20h-393zM551 612h455v684zM969 1667l161 272h199v-12l-330 -260h-30z" />
<glyph unicode="&#x218;" horiz-adv-x="1224" d="M123 0v401h59q14 -74 43 -133t61.5 -96t75.5 -63.5t76 -39t72.5 -19.5t56 -8t35.5 -1q72 0 135.5 16t115.5 48t82 86t30 124q0 71 -28 128t-75.5 95.5t-108.5 70.5t-129 59.5t-136 56.5t-129 67t-108.5 85.5t-75.5 117t-28 156.5t29.5 155.5t76 110.5t108.5 69t121 37.5 t120 10.5q170 0 297.5 -69t181.5 -191l-194 -135h-23q15 58 15 88q0 121 -74 185.5t-211 64.5q-126 0 -208.5 -68.5t-82.5 -183.5q0 -63 28 -114t76 -87.5t109.5 -68t129.5 -59.5t136.5 -58t130 -68.5t109.5 -84.5t76 -113t28 -148q0 -216 -146 -334.5t-386 -118.5 q-91 0 -171 24.5t-130 67.5l-146 -63h-24zM494 -221l116 112l117 -112l-109 -348h-30q2 11 4 29t2 68t-7 93t-31 88.5t-62 69.5z" />
<glyph unicode="&#x219;" horiz-adv-x="925" d="M102 721q0 116 100.5 183t243.5 67q284 0 373 -174l-186 -138l-27 19q15 37 15 65q0 70 -45.5 122.5t-135.5 52.5q-72 0 -121 -41t-49 -113q0 -50 32 -89.5t83.5 -66t113.5 -51t124 -52.5t113.5 -61.5t83.5 -86t32 -119.5q0 -128 -108 -197.5t-273 -69.5q-146 0 -231 58 l-107 -43h-27v276h48q35 -106 116 -169.5t185 -63.5q106 0 159.5 46t53.5 122q0 42 -24.5 76.5t-64 58t-90.5 47t-104 43.5t-104 48.5t-90.5 60.5t-64 81t-24.5 109zM350 -221l117 112l117 -112l-109 -348h-31q2 11 4 29t2 68t-7 93t-31 88.5t-62 69.5z" />
<glyph unicode="&#x21a;" horiz-adv-x="1323" d="M37 1167l65 338h1119l65 -338h-33l-256 277h-243v-1254l127 -172v-18h-439v18l127 172v1254h-243l-256 -277h-33zM543 -221l116 112l117 -112l-108 -348h-31q2 11 4 29t2 68t-7 93t-31 88.5t-62 69.5z" />
<glyph unicode="&#x21b;" horiz-adv-x="714" d="M53 877v22l262 346h37v-303h285v-65h-285v-680q0 -63 41 -98.5t101 -35.5t96 33t49 70l47 -19q-5 -26 -21.5 -54.5t-45 -57t-75 -46.5t-102.5 -18q-258 0 -258 242v664h-131zM229 -221l117 112l117 -112l-109 -348h-30q2 11 4 29t1.5 68t-7.5 93t-31 88.5t-62 69.5z" />
<glyph unicode="&#x2c6;" horiz-adv-x="1228" d="M111 1100v12l227 262l227 -262v-12h-90l-135 121l-139 -121h-90z" />
<glyph unicode="&#x2c7;" horiz-adv-x="675" d="M111 1341v13h90l139 -121l135 121h90v-13l-227 -262z" />
<glyph unicode="&#x2d8;" horiz-adv-x="684" d="M119 1335h86q0 -59 38 -96t99 -37t99 37t38 96h86q0 -98 -64 -164.5t-159 -66.5t-159 66.5t-64 164.5z" />
<glyph unicode="&#x2d9;" horiz-adv-x="1228" d="M123 1229q0 47 34 80.5t81 33.5t80.5 -33.5t33.5 -80.5t-33.5 -81t-80.5 -34t-81 34t-34 81z" />
<glyph unicode="&#x2da;" horiz-adv-x="442" d="M55 1368q0 68 48.5 116t115.5 48t115.5 -48t48.5 -116t-48.5 -116t-115.5 -48t-115.5 48t-48.5 116zM131 1368q0 -37 25.5 -62.5t62.5 -25.5t62.5 25.5t25.5 62.5t-25.5 62.5t-62.5 25.5t-62.5 -25.5t-25.5 -62.5z" />
<glyph unicode="&#x2db;" horiz-adv-x="628" d="M123 -227q0 76 67.5 150.5t139.5 111.5h76q-36 -23 -60 -41.5t-54.5 -49.5t-46.5 -70t-16 -85q0 -38 20.5 -69t67.5 -31q70 0 138 80l51 -43q-43 -54 -99 -82.5t-104 -28.5q-89 0 -134.5 42.5t-45.5 115.5z" />
<glyph unicode="&#x2dc;" horiz-adv-x="1228" d="M123 1184q13 52 52.5 79t86.5 27q44 0 102 -26.5t93 -26.5q32 0 59 14t33 35l57 -29q-36 -104 -149 -104q-36 0 -97.5 27.5t-97.5 27.5q-31 0 -54 -13.5t-30 -37.5z" />
<glyph unicode="&#x2dd;" horiz-adv-x="899" d="M123 1100l113 272h204v-12l-286 -260h-31zM373 1102l112 272h205v-12l-287 -260h-30z" />
<glyph unicode="&#x300;" d="M-483 1364v12h198l162 -272h-31z" />
<glyph unicode="&#x301;" d="M-489 1104l161 272h199v-12l-330 -260h-30z" />
<glyph unicode="&#x302;" d="M-565 1100v12l227 262l227 -262v-12h-90l-135 121l-139 -121h-90z" />
<glyph unicode="&#x303;" d="M-606 1184q13 52 52.5 79t86.5 27q45 0 102.5 -26.5t92.5 -26.5q32 0 59 14t33 35l57 -29q-36 -104 -149 -104q-36 0 -97.5 27.5t-97.5 27.5q-31 0 -54 -13.5t-30 -37.5z" />
<glyph unicode="&#x304;" d="M-573 1171v70h450v-70h-450z" />
<glyph unicode="&#x306;" d="M-565 1335h86q0 -59 38 -96t99 -37t99 37t38 96h86q0 -98 -64 -164.5t-159 -66.5t-159 66.5t-64 164.5z" />
<glyph unicode="&#x307;" d="M-352 1229q0 47 33.5 80.5t80.5 33.5t81 -33.5t34 -80.5t-34 -81t-81 -34t-80.5 34t-33.5 81z" />
<glyph unicode="&#x308;" d="M-897 1229l113 117l112 -117l-112 -115zM-592 1229l113 117l112 -117l-112 -115z" />
<glyph unicode="&#x30a;" d="M-393 1229q0 55 39.5 95t95.5 40t95.5 -40t39.5 -95t-39.5 -95t-95.5 -40t-95.5 40t-39.5 95zM-324 1229q0 -28 19 -47t47 -19t46.5 19t18.5 47t-18.5 46.5t-46.5 18.5t-47 -18.5t-19 -46.5z" />
<glyph unicode="&#x30b;" d="M-690 1100l112 272h205v-12l-286 -260h-31zM-440 1102l112 272h205v-12l-287 -260h-30z" />
<glyph unicode="&#x30c;" d="M-565 1341v13h90l139 -121l135 121h90v-13l-227 -262z" />
<glyph unicode="&#x312;" d="M-373 1214l109 349h31q-2 -11 -4 -29.5t-2 -68.5t7 -93t31 -88.5t62 -69.5l-117 -112z" />
<glyph unicode="&#x326;" d="M-342 -221l117 112l116 -112l-108 -348h-31q2 11 4 29t2 68t-7 93t-31 88.5t-62 69.5z" />
<glyph unicode="&#x327;" d="M-424 -387l2 35q24 -6 66 -6q56 0 84 21t28 69q0 29 -20 51t-52 32.5t-54 15.5t-44 7v17l146 172h57l-84 -121q172 -41 172 -156q0 -147 -213 -147q-46 0 -88 10z" />
<glyph unicode="&#x328;" d="M-506 -227q0 76 67.5 150.5t139.5 111.5h76q-36 -23 -60 -41.5t-54.5 -49.5t-46 -70t-15.5 -85q0 -38 20.5 -69t67.5 -31q69 0 137 80l51 -43q-43 -54 -99 -82.5t-104 -28.5q-89 0 -134.5 42.5t-45.5 115.5z" />
<glyph unicode="&#x335;" d="M-578 698v66h459v-66h-459z" />
<glyph unicode="&#x336;" d="M-1024 698v66h901v-66h-901z" />
<glyph unicode="&#x337;" d="M-1067 -72l803 1088h119l-807 -1088h-115z" />
<glyph unicode="&#x338;" d="M-1462 -59l1204 1622h135l-1216 -1622h-123z" />
<glyph unicode="&#x1e80;" horiz-adv-x="1904" d="M45 1487v18h387v-18l-80 -166l338 -989l217 801l-110 354v18h329v-18l-51 -191l266 -962l324 987l-104 166v18h307v-18l-111 -166l-457 -1350h-43l-301 1014l-280 -1014h-49l-482 1350zM735 1927v12h199l162 -272h-31z" />
<glyph unicode="&#x1e81;" horiz-adv-x="1482" d="M47 920v22h320v-22l-66 -140l227 -549l177 449l-99 240v22h332v-22l-78 -183l191 -506l231 560l-72 129v22h230v-20l-66 -142l-336 -809h-59l-227 590l-230 -590h-63l-342 805zM524 1364v12h199l162 -272h-31z" />
<glyph unicode="&#x1e82;" horiz-adv-x="1904" d="M45 1487v18h387v-18l-80 -166l338 -989l217 801l-110 354v18h329v-18l-51 -191l266 -962l324 987l-104 166v18h307v-18l-111 -166l-457 -1350h-43l-301 1014l-280 -1014h-49l-482 1350zM791 1667l161 272h199v-12l-330 -260h-30z" />
<glyph unicode="&#x1e83;" horiz-adv-x="1482" d="M47 920v22h320v-22l-66 -140l227 -549l177 449l-99 240v22h332v-22l-78 -183l191 -506l231 560l-72 129v22h230v-20l-66 -142l-336 -809h-59l-227 590l-230 -590h-63l-342 805zM580 1104l161 272h199v-12l-330 -260h-30z" />
<glyph unicode="&#x1e84;" horiz-adv-x="1904" d="M45 1487v18h387v-18l-80 -166l338 -989l217 801l-110 354v18h329v-18l-51 -191l266 -962l324 987l-104 166v18h307v-18l-111 -166l-457 -1350h-43l-301 1014l-280 -1014h-49l-482 1350zM686 1792l113 117l112 -117l-112 -115zM991 1792l113 117l113 -117l-113 -115z" />
<glyph unicode="&#x1e85;" horiz-adv-x="1482" d="M47 920v22h320v-22l-66 -140l227 -549l177 449l-99 240v22h332v-22l-78 -183l191 -506l231 560l-72 129v22h230v-20l-66 -142l-336 -809h-59l-227 590l-230 -590h-63l-342 805zM475 1229l113 117l112 -117l-112 -115zM780 1229l113 117l113 -117l-113 -115z" />
<glyph unicode="&#x1ebc;" horiz-adv-x="1339" d="M70 1487v18h1020l73 -329h-33l-256 268h-462v-580h338l147 105h21v-312h-21l-147 142h-338v-733h354q56 0 105 16.5t81.5 41t58.5 57.5t40 62t22 58l184 -199q-83 -67 -166.5 -87t-261.5 -15h-731v18l129 170v1127zM379 1747q13 52 52.5 79t86.5 27q44 0 102 -26.5 t93 -26.5q32 0 59 14t33 35l57 -28q-36 -105 -149 -105q-36 0 -97.5 28t-97.5 28q-31 0 -54 -14t-30 -38z" />
<glyph unicode="&#x1ebd;" horiz-adv-x="1079" d="M90 483q0 58 12.5 118.5t46 128t85.5 119t139 86.5t198 36q206 0 319.5 -110.5t113.5 -311.5v-33h-719q2 -64 16 -124.5t43 -117.5t69.5 -99.5t100 -68.5t131.5 -26q83 0 162 39.5t129 124.5l59 -25q-69 -158 -216 -217q-79 -31 -175 -31q-231 0 -372.5 142t-141.5 370z M285 569l536 31q-1 144 -75 231t-181 87q-128 0 -200 -97t-80 -252zM315 1184q13 52 53 79t87 27q44 0 101.5 -26.5t92.5 -26.5q32 0 59 14t33 35l58 -29q-36 -104 -150 -104q-36 0 -97 27.5t-97 27.5q-31 0 -54 -13.5t-30 -37.5z" />
<glyph unicode="&#x1ebe;" horiz-adv-x="1339" d="M70 1487v18h1020l73 -329h-33l-256 268h-462v-580h338l147 105h21v-312h-21l-147 142h-338v-733h354q56 0 105 16.5t81.5 41t58.5 57.5t40 62t22 58l184 -199q-83 -67 -166.5 -87t-261.5 -15h-731v18l129 170v1127zM391 1663v12l227 262l228 -262v-12h-90l-135 121 l-140 -121h-90zM459 2230l162 273h198v-13l-330 -260h-30z" />
<glyph unicode="&#x1ed0;" horiz-adv-x="1748" d="M90 752q0 225 96.5 402.5t275 278.5t410.5 101t412 -100.5t277.5 -278t97.5 -403.5q0 -221 -98.5 -399t-279 -280t-409.5 -102q-230 0 -409 101.5t-276 279t-97 400.5zM299 856q0 -219 82 -408t225.5 -302t313.5 -113q238 0 384 171t146 441q0 226 -86.5 417t-231.5 301 t-313 110q-160 0 -279.5 -83t-180 -222t-60.5 -312zM645 1663v12l227 262l228 -262v-12h-90l-136 121l-139 -121h-90zM713 2230l161 273h199v-13l-330 -260h-30z" />
<glyph unicode="&#x1ef2;" horiz-adv-x="1171" d="M45 1487v18h408v-18l-99 -166l283 -500l299 498l-115 168v18h309v-18l-450 -744v-553l123 -172v-18h-430v18l123 172v519zM393 1927v12h199l162 -272h-31z" />
<glyph unicode="&#x1ef3;" horiz-adv-x="1032" d="M16 920v22h369v-18l-86 -144l299 -579l240 581l-95 140v20h265v-22l-68 -134l-442 -1069l73 -127v-20h-264v22l88 125l115 283zM348 1364v12h199l162 -272h-31z" />
<glyph unicode="&#x1ef8;" horiz-adv-x="1228" d="M45 1487v18h408v-18l-99 -166l41 -72q36 -12 62 -12q32 0 59 14t33 35l57 -29q-36 -104 -149 -104h-8l188 -332l299 498l-115 168v18h309v-18l-450 -744v-553l123 -172v-18h-430v18l123 172v519l-283 489q-27 -17 -35 -41l-55 27q12 51 51 78z" />
<glyph unicode="&#x1ef9;" horiz-adv-x="1228" d="M16 920v22h369v-18l-86 -144l299 -579l240 581l-95 140v20h265v-22l-68 -134l-442 -1069l73 -127v-20h-264v22l88 125l115 283zM123 1184q13 52 52.5 79t86.5 27q44 0 102 -26.5t93 -26.5q32 0 59 14t33 35l57 -29q-36 -104 -149 -104q-36 0 -97.5 27.5t-97.5 27.5 q-31 0 -54 -13.5t-30 -37.5z" />
<glyph unicode="&#x2000;" horiz-adv-x="1251" />
<glyph unicode="&#x2001;" horiz-adv-x="2503" />
<glyph unicode="&#x2002;" horiz-adv-x="1251" />
<glyph unicode="&#x2003;" horiz-adv-x="2503" />
<glyph unicode="&#x2004;" horiz-adv-x="834" />
<glyph unicode="&#x2005;" horiz-adv-x="625" />
<glyph unicode="&#x2006;" horiz-adv-x="417" />
<glyph unicode="&#x2007;" horiz-adv-x="417" />
<glyph unicode="&#x2008;" horiz-adv-x="312" />
<glyph unicode="&#x2009;" horiz-adv-x="500" />
<glyph unicode="&#x200a;" horiz-adv-x="139" />
<glyph unicode="&#x2010;" horiz-adv-x="724" d="M102 506v106h521v-106h-521z" />
<glyph unicode="&#x2011;" horiz-adv-x="724" d="M102 506v106h521v-106h-521z" />
<glyph unicode="&#x2012;" horiz-adv-x="724" d="M102 506v106h521v-106h-521z" />
<glyph unicode="&#x2013;" horiz-adv-x="1085" d="M82 516v88h922v-88h-922z" />
<glyph unicode="&#x2014;" horiz-adv-x="1624" d="M82 516v88h1460v-88h-1460z" />
<glyph unicode="&#x2018;" horiz-adv-x="393" d="M66 1112l124 420h33q-2 -13 -4 -35t-2 -83t8.5 -112.5t35.5 -106.5t71 -83l-133 -137z" />
<glyph unicode="&#x2019;" horiz-adv-x="376" d="M55 1395l133 137l134 -137l-125 -420h-33q2 13 4 35t2 83t-8.5 112.5t-35.5 106.5t-71 83z" />
<glyph unicode="&#x201a;" horiz-adv-x="395" d="M68 88l133 137l133 -137l-125 -420h-33q2 13 4.5 35t2 83t-8.5 112.5t-35 106.5t-71 83z" />
<glyph unicode="&#x201c;" horiz-adv-x="675" d="M61 1112l125 420h33q-2 -13 -4 -35t-2 -83t8.5 -112.5t35.5 -106.5t71 -83l-133 -137zM356 1112l125 420h33q-2 -13 -4 -35t-2 -83t8.5 -112.5t35.5 -106.5t71 -83l-134 -137z" />
<glyph unicode="&#x201d;" horiz-adv-x="686" d="M61 1395l134 137l133 -137l-125 -420h-33q2 13 4 35t2 83t-8.5 112.5t-35.5 106.5t-71 83zM356 1395l133 137l134 -137l-125 -420h-33q2 13 4 35t2 83t-8.5 112.5t-35.5 106.5t-71 83z" />
<glyph unicode="&#x201e;" horiz-adv-x="681" d="M57 88l133 137l134 -137l-125 -420h-33q2 13 4 35t2 83t-8.5 112.5t-35.5 106.5t-71 83zM358 88l134 137l133 -137l-125 -420h-33q2 13 4 35t2 83t-8.5 112.5t-35.5 106.5t-71 83z" />
<glyph unicode="&#x2022;" horiz-adv-x="526" d="M98 719l49 108l115 62l111 -62l55 -108l-55 -113l-111 -57l-115 57z" />
<glyph unicode="&#x2026;" horiz-adv-x="1247" d="M82 100l133 138l133 -138l-133 -135zM494 100l133 138l133 -138l-133 -135zM905 100l133 138l133 -138l-133 -135z" />
<glyph unicode="&#x202f;" horiz-adv-x="500" />
<glyph unicode="&#x2030;" horiz-adv-x="2023" d="M152 1210q0 62 16.5 112t41.5 81t58 51.5t63.5 28.5t59.5 8q39 0 78.5 -14t78 -44t63 -88t24.5 -135t-24.5 -134.5t-63 -87.5t-78 -44t-78.5 -14q-37 0 -75.5 14t-77 44t-62.5 87.5t-24 134.5zM172 0l985 1466h129l-985 -1466h-129zM268 1208q-1 -106 33 -162.5t90 -56.5 q60 0 94.5 56.5t34.5 162.5q0 108 -34.5 165t-94.5 57q-56 0 -90 -57.5t-33 -164.5zM848 264q0 62 16.5 112t41.5 81t58 51.5t63.5 28.5t59.5 8q39 0 78.5 -14t78 -44t63 -88t24.5 -135t-24.5 -134.5t-63 -87.5t-78 -44t-78.5 -14q-37 0 -75.5 14t-77 44t-62.5 87.5 t-24 134.5zM965 262q-1 -107 32.5 -163t89.5 -56q60 0 95 56.5t35 162.5q0 108 -35 164.5t-95 56.5q-56 0 -89.5 -57t-32.5 -164zM1479 264q0 62 16.5 112t41.5 81t58 51.5t63.5 28.5t59.5 8q39 0 78.5 -14t78 -44t63 -88t24.5 -135t-24.5 -134.5t-63 -87.5t-78 -44 t-78.5 -14q-37 0 -75.5 14t-77 44t-62.5 87.5t-24 134.5zM1595 262q-1 -106 33 -162.5t90 -56.5q60 0 94.5 56.5t34.5 162.5q0 108 -34.5 164.5t-94.5 56.5q-56 0 -90 -57t-33 -164z" />
<glyph unicode="&#x205f;" horiz-adv-x="625" />
<glyph unicode="&#x20ac;" horiz-adv-x="1388" d="M74 809l28 106h78q40 286 208 455.5t415 169.5q306 0 483 -233l-125 -189q-3 45 -16 92t-41.5 98t-68.5 89.5t-103.5 64t-140.5 25.5q-73 0 -135 -21t-106 -55t-79 -83t-57 -99t-37 -108.5t-22.5 -107t-10.5 -98.5h576l-29 -106h-549q4 -106 10 -154h490l-37 -102h-434 q22 -117 70.5 -208t114 -148t143 -86t163.5 -29q250 0 375 182l45 -20q-69 -133 -184.5 -203t-261.5 -70q-259 0 -430.5 156t-219.5 426h-110l26 102h72q-4 31 -4 99v55h-96z" />
<glyph unicode="&#x2116;" horiz-adv-x="2334" d="M86 0v18l127 172v1125l-127 172v18h231l859 -1159v973l-123 168v18h336v-18l-123 -168v-1331h-74l-889 1220v-1018l127 -172v-18h-344zM1421 946q0 97 27.5 175.5t69.5 126.5t96 80.5t104 45t97 12.5q50 0 102 -12.5t107 -45t97.5 -80.5t69.5 -126.5t27 -175.5 t-27 -175.5t-69.5 -126.5t-97.5 -80.5t-107 -45t-102 -12.5q-47 0 -97 12.5t-104 45t-96 80.5t-69.5 126.5t-27.5 175.5zM1427 266v86h777v-86h-777zM1606 944q-1 -182 56.5 -277.5t152.5 -95.5q102 0 161.5 95.5t59.5 277.5q0 186 -59 282.5t-162 96.5q-95 0 -152.5 -97.5 t-56.5 -281.5z" />
<glyph unicode="&#x2190;" horiz-adv-x="2181" d="M82 508v104q146 13 262.5 85t245.5 227l28 -19l-169 -301h1650v-88h-1650l169 -301l-28 -18q-129 155 -245.5 226t-262.5 85z" />
<glyph unicode="&#x2191;" horiz-adv-x="1054" d="M164 1026q155 129 226 245.5t85 262.5h105q14 -146 85 -262.5t226 -245.5l-19 -29l-301 170v-1196h-88v1196l-301 -170z" />
<glyph unicode="&#x2192;" horiz-adv-x="2181" d="M82 516v88h1651l-170 301l28 19q129 -155 245.5 -227t262.5 -85v-104q-146 -14 -262.5 -85t-245.5 -226l-28 18l170 301h-1651z" />
<glyph unicode="&#x2193;" horiz-adv-x="1054" d="M164 508l18 29l301 -170v1196h88v-1196l301 170l19 -29q-155 -129 -226 -245.5t-85 -262.5h-105q-14 146 -85 262.5t-226 245.5z" />
<glyph unicode="&#x2194;" horiz-adv-x="2181" d="M82 508v104q146 13 262.5 85t245.5 227l28 -19l-169 -301h1284l-170 301l28 19q129 -155 245.5 -227t262.5 -85v-104q-146 -14 -262.5 -85t-245.5 -226l-28 18l170 301h-1284l169 -301l-28 -18q-129 155 -245.5 226t-262.5 85z" />
<glyph unicode="&#x2195;" horiz-adv-x="1054" d="M164 479l18 29l301 -170v829l-301 -170l-18 29q155 129 226 245.5t85 262.5h105q14 -146 85 -262.5t226 -245.5l-19 -29l-301 170v-829l301 170l19 -29q-155 -129 -226 -245.5t-85 -262.5h-105q-14 146 -85 262.5t-226 245.5z" />
<glyph unicode="&#x2248;" horiz-adv-x="1007" d="M43 186q0 6 1 16t7.5 38.5t17.5 55t33.5 58.5t52 54.5t77.5 38.5t106 16q53 0 97.5 -15.5t75 -37.5t59 -44t64.5 -37.5t77 -15.5q52 0 92.5 16t61.5 38.5t35 45t18 38.5l4 16h43q0 -6 -1 -16t-7.5 -38.5t-17.5 -55t-33.5 -58.5t-52 -54.5t-77.5 -38.5t-106 -16 q-52 0 -96.5 15.5t-75 37.5t-59 44t-64.5 37.5t-76 15.5q-52 0 -92.5 -16t-61.5 -38.5t-35 -45t-18 -38.5l-4 -16h-45zM43 483q0 6 1 16t7.5 38.5t17.5 55t33.5 58.5t52 54.5t77.5 38.5t106 16q53 0 97.5 -15.5t75 -37.5t59 -44t64.5 -37.5t77 -15.5q52 0 92.5 16t61.5 38.5 t35 45t18 38.5l4 16h43q0 -6 -1 -16t-7.5 -38.5t-17.5 -55t-33.5 -58.5t-52 -54.5t-77.5 -38.5t-106 -16q-52 0 -96.5 15.5t-75 37.5t-59 44t-64.5 37.5t-76 15.5q-52 0 -92.5 -16t-61.5 -38.5t-35 -45t-18 -38.5l-4 -16h-45z" />
<glyph unicode="&#x2264;" horiz-adv-x="839" d="M55 0v92h713v-92h-713zM55 705v34l713 508v-157l-449 -369l449 -354v-170z" />
<glyph unicode="&#x2265;" horiz-adv-x="839" d="M55 0v92h713v-92h-713zM55 197v170l449 354l-449 369v157l713 -508v-34z" />
<glyph unicode="&#x25fc;" horiz-adv-x="942" d="M0 0v942h942v-942h-942z" />
<glyph horiz-adv-x="1206" d="M90 471q0 118 44.5 215t118 158t164 94t185.5 33q96 0 187 -32.5t164.5 -92t118 -154t44.5 -209.5q0 -120 -43.5 -219.5t-114.5 -162t-159 -96.5t-181 -34q-109 0 -204 33t-167.5 95t-114.5 158t-42 214zM289 502q0 -212 96.5 -344.5t251.5 -132.5q129 0 205 116t76 312 q0 186 -78 313q-57 88 -158 88q-79 0 -122.5 -49.5t-43.5 -136.5q0 -69 41 -152l-123 -67q-35 71 -35 153q0 120 75 205.5t194 85.5q49 0 92 -16q-52 41 -158 41q-147 0 -230 -112t-83 -304z" />
<glyph horiz-adv-x="1751" d="M90 754q0 225 96.5 403.5t276 280.5t411.5 102t412 -101.5t277.5 -280t97.5 -404.5q0 -222 -98.5 -400.5t-279 -281.5t-409.5 -103q-231 0 -410.5 102.5t-276.5 281t-97 401.5zM299 858q0 -166 48 -319.5t129.5 -266t194.5 -180t236 -67.5q163 0 287 79.5t190 220 t66 322.5q0 158 -43 302.5t-119 258.5q-80 108 -162 150.5t-190 42.5q-140 0 -230 -97t-90 -249q0 -32 3.5 -60.5t11 -53t14 -42.5t19 -38t18 -29t18.5 -26t15 -20l-174 -129q-90 145 -90 312q0 128 51.5 236t156 176.5t242.5 68.5q125 0 242 -51q-115 84 -287 84 q-177 0 -305 -84.5t-190 -224t-62 -316.5z" />
<glyph horiz-adv-x="1456" d="M102 758q0 124 22.5 231.5t60.5 185t89.5 140.5t108 103t118 67t117 38t107.5 11q80 0 161 -22.5t167 -80.5t151.5 -144t107.5 -226.5t42 -315.5q0 -144 -30 -265t-81 -203.5t-114 -144t-134.5 -96t-136.5 -51t-125 -16.5q-81 0 -163 22.5t-168 80.5t-151 144t-107 226.5 t-42 315.5zM313 817q0 -370 121 -579l514 1134q-98 98 -225 98q-194 0 -302 -171.5t-108 -481.5zM487 160q107 -125 254 -125q192 0 297 172.5t105 486.5q0 396 -139 609z" />
<glyph horiz-adv-x="1202" d="M82 469q0 223 136 362.5t353 139.5q176 0 285 -101l121 86h37v-778l110 -155v-23h-278v63q-117 -92 -285 -92q-210 0 -344.5 139t-134.5 359zM252 518q0 -192 95 -312t247 -120q165 0 254 102v361q-74 -43 -160 -43q-132 0 -214.5 62.5t-82.5 160.5q0 60 36.5 104.5 t96.5 59.5q-126 -13 -199 -114.5t-73 -260.5zM498 756q0 -24 7.5 -47t25 -46t52.5 -37.5t83 -15.5q108 0 182 80q-1 56 -21.5 96.5t-52.5 60.5t-62 29t-59 9q-72 0 -113.5 -34.5t-41.5 -94.5z" />
<glyph horiz-adv-x="1200" d="M82 469q0 226 129.5 364t341.5 138q178 0 289 -105l116 90h37v-778l111 -155v-23h-279v63q-120 -92 -284 -92q-125 0 -231 67t-168 181.5t-62 249.5zM252 504q0 -180 92 -299t231 -119q165 0 254 102v586q-102 113 -256 113q-150 0 -235.5 -102t-85.5 -281z" />
<glyph horiz-adv-x="540" d="M94 0v18l105 158v410q0 109 -25.5 169.5t-77.5 94.5l223 121h48v-795l102 -158v-18h-375zM156 1229q0 47 33.5 80.5t80.5 33.5t81 -33.5t34 -80.5t-34 -81t-81 -34t-80.5 34t-33.5 81z" />
</font>
</defs>
</svg>
